<?xml version="1.0" standalone="no"?>
<!DOCTYPE svg PUBLIC "-//W3C//DTD SVG 20010904//EN"
 "http://www.w3.org/TR/2001/REC-SVG-20010904/DTD/svg10.dtd">
<svg version="1.0" xmlns="http://www.w3.org/2000/svg"
 width="499.000000pt" height="153.000000pt" viewBox="0 0 499.000000 153.000000"
 preserveAspectRatio="xMidYMid meet">

<g transform="translate(0.000000,153.000000) scale(0.100000,-0.100000)"
fill="#000000" stroke="none">
<path d="M3600 1073 l1 -348 174 345 c96 190 175 346 175 348 0 1 -79 2 -175
2 l-175 0 0 -347z"/>
<path d="M3979 1377 c-12 -23 -46 -88 -75 -143 -30 -56 -54 -104 -54 -108 0
-3 40 -6 88 -6 156 0 251 -46 304 -149 23 -43 28 -66 28 -120 -1 -162 -113
-260 -307 -269 l-93 -4 -2 210 -3 210 -177 -349 c-98 -191 -178 -350 -178
-353 0 -9 492 -6 588 3 205 21 350 144 418 355 30 94 37 252 15 346 -23 98
-77 197 -144 264 -90 89 -189 133 -339 150 l-48 6 -21 -43z"/>
<path d="M1958 1124 c-70 -38 -63 -133 12 -164 55 -23 120 22 120 83 0 39 -15
64 -50 82 -36 18 -47 18 -82 -1z"/>
<path d="M476 1038 c14 -35 55 -139 91 -233 36 -93 68 -174 72 -178 5 -4 41
-7 82 -5 l75 3 -76 235 -76 235 -96 3 -97 3 25 -63z"/>
<path d="M1021 1078 c-5 -13 -39 -117 -76 -233 -37 -116 -70 -214 -72 -218 -3
-4 32 -7 77 -5 l83 3 83 220 c46 121 87 228 90 238 5 15 -4 17 -86 17 -85 0
-91 -1 -99 -22z"/>
<path d="M3894 845 c0 -99 2 -138 3 -87 2 51 2 132 0 180 -1 48 -3 6 -3 -93z"/>
<path d="M1422 889 c-122 -20 -220 -113 -238 -228 l-7 -41 90 0 89 0 14 42
c21 58 58 83 125 83 46 0 58 -4 85 -30 17 -16 34 -43 38 -60 l8 -30 93 -3 93
-3 -6 35 c-32 170 -190 267 -384 235z"/>
<path d="M2378 881 c-26 -11 -65 -33 -87 -50 -45 -36 -101 -138 -101 -183 l0
-29 87 3 c86 3 87 3 94 32 25 93 146 130 215 65 l23 -21 81 27 81 27 -20 31
c-23 39 -99 93 -149 107 -59 16 -171 11 -224 -9z"/>
<path d="M3028 883 c-90 -30 -168 -125 -184 -221 l-7 -42 312 0 312 0 -7 38
c-17 99 -68 167 -156 211 -54 27 -71 31 -142 30 -45 0 -102 -7 -128 -16z m187
-127 c35 -15 65 -59 65 -96 0 -19 -6 -20 -129 -20 -72 0 -132 4 -135 8 -2 4 3
26 13 48 30 66 109 92 186 60z"/>
<path d="M1910 750 l0 -130 90 0 90 0 0 130 0 130 -90 0 -90 0 0 -130z"/>
<path d="M3924 865 c-9 -23 3 -45 25 -45 23 0 35 28 20 46 -15 18 -38 18 -45
-1z"/>
<path d="M660 571 c0 -24 93 -248 107 -258 9 -7 45 -13 79 -13 l62 0 28 73
c15 39 38 99 51 131 13 33 23 63 23 68 0 4 -34 8 -75 8 -71 0 -75 -1 -89 -27
l-14 -28 -11 28 c-10 26 -13 27 -86 27 -41 0 -75 -4 -75 -9z"/>
<path d="M1182 536 c11 -93 75 -177 167 -220 70 -32 228 -30 295 3 87 43 147
123 162 219 l7 42 -91 0 c-95 0 -102 -4 -102 -52 0 -30 -61 -85 -102 -93 -75
-14 -158 51 -158 124 0 20 -5 21 -91 21 l-92 0 5 -44z"/>
<path d="M1910 445 l0 -135 90 0 91 0 -3 133 -3 132 -87 3 -88 3 0 -136z"/>
<path d="M2193 535 c19 -135 136 -233 292 -243 105 -7 177 17 237 78 27 26 48
52 48 57 0 9 -135 63 -158 63 -5 0 -13 -7 -16 -15 -9 -24 -72 -47 -111 -39
-46 8 -93 51 -110 99 l-13 40 -87 3 -88 3 6 -46z"/>
<path d="M2843 530 c8 -67 51 -144 100 -180 98 -72 241 -81 359 -22 65 32 136
99 120 113 -4 3 -36 14 -71 23 l-63 18 -27 -26 c-66 -63 -187 -50 -226 24 -32
61 -37 60 205 60 213 0 220 1 220 20 0 20 -7 20 -311 20 l-312 0 6 -50z"/>
<path d="M2208 233 c20 -4 22 -10 22 -63 0 -32 5 -62 10 -65 6 -4 10 18 10 59
0 59 2 65 23 69 12 2 -3 4 -33 4 -30 0 -45 -2 -32 -4z"/>
<path d="M2310 175 c0 -37 4 -65 10 -65 6 0 10 16 10 35 0 23 6 37 19 44 25
14 31 5 31 -41 0 -21 5 -38 10 -38 16 0 12 76 -5 90 -8 6 -23 9 -35 5 -16 -5
-20 -2 -20 14 0 12 -4 21 -10 21 -6 0 -10 -28 -10 -65z"/>
<path d="M2590 175 c0 -37 4 -65 10 -65 6 0 10 13 10 29 0 26 4 30 33 34 l32
4 -32 1 c-28 2 -33 6 -33 26 0 21 5 25 38 29 34 3 33 4 -10 5 l-48 2 0 -65z"/>
<path d="M3212 173 l3 -68 37 -2 c20 -2 39 1 43 7 4 6 -8 10 -29 10 l-36 0 0
60 c0 35 -4 60 -10 60 -7 0 -10 -25 -8 -67z"/>
<path d="M3723 175 c0 -38 2 -55 4 -37 4 30 7 32 44 32 37 0 39 -2 39 -30 0
-16 5 -30 10 -30 6 0 10 28 10 65 0 37 -4 65 -10 65 -5 0 -10 -11 -10 -25 0
-14 -3 -25 -7 -26 -5 0 -16 -2 -27 -4 -29 -6 -45 5 -49 33 -2 15 -4 -4 -4 -43z"/>
<path d="M2812 209 c-7 -11 -8 -19 -2 -19 5 0 10 -18 10 -39 0 -38 14 -61 28
-46 4 4 1 10 -5 12 -15 5 -18 70 -4 75 5 2 4 11 -3 20 -11 15 -13 15 -24 -3z"/>
<path d="M2436 194 c-30 -29 -10 -94 28 -94 7 0 21 7 32 16 19 15 19 16 -1 9
-37 -12 -55 -9 -55 10 0 10 11 15 35 15 28 0 35 4 35 20 0 18 -26 40 -49 40
-5 0 -17 -7 -25 -16z m59 -25 c-10 -15 -55 -11 -55 5 0 8 6 16 13 19 17 6 49
-12 42 -24z"/>
<path d="M2770 170 c0 -28 -5 -42 -19 -49 -24 -13 -38 2 -44 49 -3 31 -4 29
-5 -11 -2 -51 11 -64 54 -53 21 5 24 12 24 55 0 27 -2 49 -5 49 -3 0 -5 -18
-5 -40z"/>
<path d="M3003 203 c-20 -4 -23 -11 -23 -49 0 -24 5 -44 10 -44 6 0 10 18 10
40 0 29 4 40 15 40 8 0 15 5 15 10 0 6 -1 9 -2 9 -2 -1 -13 -4 -25 -6z"/>
<path d="M3057 192 c-21 -23 -22 -56 -1 -76 20 -20 48 -20 64 -1 14 17 0 21
-16 5 -14 -14 -44 -2 -44 16 0 9 12 14 35 14 28 0 35 4 35 20 0 18 -26 40 -48
40 -5 0 -16 -8 -25 -18z m58 -23 c-10 -15 -55 -11 -55 5 0 8 6 16 13 19 17 6
49 -12 42 -24z"/>
<path d="M3350 203 c0 -18 34 -93 42 -93 10 0 38 62 37 82 0 7 -9 -5 -19 -27
l-19 -40 -10 28 c-6 16 -11 32 -11 37 0 5 -4 12 -10 15 -5 3 -10 3 -10 -2z"/>
<path d="M3466 194 c-30 -29 -10 -94 28 -94 15 0 55 29 41 30 -6 0 -16 -5 -21
-10 -14 -14 -44 -2 -44 16 0 9 12 14 35 14 24 0 35 5 35 14 0 18 -27 46 -45
46 -7 0 -21 -7 -29 -16z m54 -20 c0 -8 -10 -14 -25 -14 -26 0 -35 25 -12 33
18 6 37 -3 37 -19z"/>
<path d="M3573 203 c-24 -9 -14 -41 17 -52 17 -5 30 -14 30 -20 0 -17 -19 -22
-40 -11 -13 7 -20 7 -20 1 0 -19 51 -25 67 -8 22 21 11 43 -26 50 -17 4 -31
11 -31 16 0 15 32 22 46 10 9 -7 14 -8 14 -1 0 17 -32 26 -57 15z"/>
<path d="M3864 186 c-13 -22 -14 -29 -2 -53 15 -32 49 -41 68 -18 14 17 0 21
-18 3 -8 -8 -15 -8 -27 2 -24 20 -18 30 20 30 27 0 35 4 35 18 0 44 -50 56
-76 18z m54 2 c19 -19 14 -28 -18 -28 -32 0 -37 9 -18 28 15 15 21 15 36 0z"/>
<path d="M3988 202 c-15 -3 -18 -13 -16 -55 1 -47 2 -48 5 -12 2 22 11 46 20
52 19 15 15 21 -9 15z"/>
<path d="M4048 199 c-26 -15 -24 -75 2 -89 22 -12 60 -5 60 11 0 6 -7 6 -19
-1 -15 -8 -24 -6 -37 8 -17 16 -16 17 24 20 45 3 54 19 26 46 -18 18 -32 20
-56 5z m52 -25 c0 -8 -10 -14 -25 -14 -26 0 -35 25 -12 33 18 6 37 -3 37 -19z"/>
<path d="M2872 158 c-2 -50 -2 -50 51 -52 26 -2 27 0 25 49 -1 43 -2 45 -5 13
-3 -24 -11 -42 -23 -48 -23 -12 -37 4 -43 50 -3 30 -4 28 -5 -12z"/>
<path d="M3323 155 c0 -27 2 -38 4 -22 2 15 2 37 0 50 -2 12 -4 0 -4 -28z"/>
</g>
</svg>
