<?xml version="1.0" encoding="UTF-8"?>
<svg version="1.1" xmlns="http://www.w3.org/2000/svg" width="499" height="153">
<path d="M0 0 C15.63573141 0.83960868 28.72706937 5.11339778 39.85546875 16.70703125 C52.22247063 31.2642535 55.52377057 49.44332739 54.04296875 68.01953125 C52.02522984 82.45225818 45.41560182 95.80602328 34.04296875 105.01953125 C20.99947631 114.36565575 8.0989086 115.18315834 -7.5234375 115.1171875 C-8.79807358 115.11577255 -10.07270966 115.1143576 -11.38597107 115.11289978 C-14.74454692 115.10827632 -18.10305242 115.0993205 -21.46160889 115.0881958 C-24.90083209 115.07789353 -28.34006262 115.07338343 -31.77929688 115.06835938 C-38.50522747 115.05737314 -45.2311253 115.04066728 -51.95703125 115.01953125 C-51.18951966 110.7392792 -49.75146174 107.28530275 -47.75 103.453125 C-47.01851772 102.02273967 -46.28866722 100.59151921 -45.56005859 99.15966797 C-45.14947205 98.3539032 -44.7388855 97.54813843 -44.31585693 96.71795654 C-42.22940894 92.57458179 -40.20489073 88.40147736 -38.17507935 84.23013306 C-36.12727205 80.02689125 -34.0650785 75.83081562 -31.99873543 71.63666725 C-30.46652961 68.52472338 -28.94147365 65.4096297 -27.43041992 62.28735352 C-25.66350378 58.63736355 -23.86785031 55.00219508 -22.0703125 51.3671875 C-21.53062332 50.24135757 -20.99093414 49.11552765 -20.43489075 47.95558167 C-19.92052963 46.92617966 -19.40616852 45.89677765 -18.8762207 44.83618164 C-18.4318013 43.92735733 -17.9873819 43.01853302 -17.52949524 42.08216858 C-15.95703125 40.01953125 -15.95703125 40.01953125 -10.95703125 39.01953125 C-10.46203125 46.44453125 -10.46203125 46.44453125 -9.95703125 54.01953125 C-7.97703125 53.52453125 -7.97703125 53.52453125 -5.95703125 53.01953125 C-4.96703125 53.67953125 -3.97703125 54.33953125 -2.95703125 55.01953125 C-2.70703125 58.08203125 -2.70703125 58.08203125 -2.95703125 61.01953125 C-3.28703125 61.34953125 -3.61703125 61.67953125 -3.95703125 62.01953125 C-5.93703125 62.01953125 -7.91703125 62.01953125 -9.95703125 62.01953125 C-10.28703125 69.27953125 -10.61703125 76.53953125 -10.95703125 84.01953125 C4.89264899 82.43094656 4.89264899 82.43094656 18.04296875 74.01953125 C22.73602339 67.22653352 23.71392247 61.11977248 23.04296875 53.01953125 C21.8278103 47.58480683 19.37198568 42.63385199 15.04296875 39.01953125 C9.05550322 35.42316397 3.49499287 33.03415401 -3.50390625 32.703125 C-4.77041016 32.6402832 -4.77041016 32.6402832 -6.0625 32.57617188 C-6.93519531 32.53685547 -7.80789063 32.49753906 -8.70703125 32.45703125 C-9.59519531 32.41384766 -10.48335938 32.37066406 -11.3984375 32.32617188 C-13.58449088 32.2203951 -15.77065214 32.11830579 -17.95703125 32.01953125 C-17.33270073 27.86945687 -15.93637921 24.61704151 -14.05078125 20.87890625 C-13.47199219 19.72648437 -12.89320313 18.5740625 -12.296875 17.38671875 C-11.84417236 16.49678223 -11.84417236 16.49678223 -11.38232422 15.58886719 C-10.45430872 13.76417814 -9.53503783 11.93528889 -8.6171875 10.10546875 C-3.53080061 0.02332101 -3.53080061 0.02332101 0 0 Z " fill="#1C4AA0" transform="translate(401.95703125,9.98046875)"/>
<path d="M0 0 C1.56047445 0.00015913 3.12095416 0.00585397 4.68139648 0.01586914 C5.91115456 0.01799156 5.91115456 0.01799156 7.16575623 0.02015686 C9.79470406 0.0257725 12.42356797 0.0383276 15.05249023 0.05102539 C16.8304838 0.05603838 18.60847869 0.06060163 20.38647461 0.06469727 C24.75434569 0.07574701 29.12215371 0.09302208 33.48999023 0.11352539 C32.91470168 3.53864729 32.06488074 6.32508207 30.48608398 9.41430664 C30.07922363 10.21835937 29.67236328 11.02241211 29.25317383 11.85083008 C28.59696045 13.12555176 28.59696045 13.12555176 27.92749023 14.42602539 C27.01205852 16.22937673 26.09669476 18.03276257 25.18139648 19.83618164 C24.72522949 20.72966309 24.2690625 21.62314453 23.79907227 22.54370117 C21.96705962 26.14007661 20.16544294 29.75128212 18.36499023 33.36352539 C17.71531827 34.66043427 17.06557904 35.95730945 16.41577148 37.25415039 C15.11047203 39.8634248 13.8177559 42.47847356 12.53295898 45.09790039 C7.84141063 54.6291269 2.78148183 63.90241039 -2.51000977 73.11352539 C-2.84000977 73.11352539 -3.17000977 73.11352539 -3.51000977 73.11352539 C-4.59119671 65.2284838 -4.65641467 57.43696786 -4.64282227 49.48852539 C-4.64349703 48.09130842 -4.6444685 46.69409157 -4.64572144 45.296875 C-4.64718637 42.38890449 -4.64508027 39.48096493 -4.64038086 36.57299805 C-4.63464155 32.83926985 -4.63799645 29.10561289 -4.64395332 25.37188721 C-4.64755541 22.49639339 -4.64642272 19.62091668 -4.64382553 16.74542236 C-4.64315748 15.3674519 -4.64398046 13.9894799 -4.64630508 12.61151123 C-4.64883035 10.69681832 -4.64430244 8.78211995 -4.6394043 6.86743164 C-4.6386087 5.77760986 -4.63781311 4.68778809 -4.63699341 3.56494141 C-4.43635718 -0.30833592 -4.02495317 0.13018037 0 0 Z " fill="#7C2F81" transform="translate(362.510009765625,9.886474609375)"/>
<path d="M0 0 C6.90791791 5.99898134 12.00440357 11.75643803 13.296875 21.0078125 C13.296875 22.9878125 13.296875 24.9678125 13.296875 27.0078125 C-7.823125 27.0078125 -28.943125 27.0078125 -50.703125 27.0078125 C-50.703125 16.76433561 -48.62691856 10.15877337 -41.5546875 2.6953125 C-30.92002684 -6.99703645 -11.7290307 -8.64422783 0 0 Z M-28.703125 15.0078125 C-30.56071014 17.67304335 -30.703125 18.71728433 -30.703125 22.0078125 C-22.783125 22.0078125 -14.863125 22.0078125 -6.703125 22.0078125 C-7.83650666 16.14415072 -7.83650666 16.14415072 -11.703125 12.0078125 C-18.45645862 9.9724001 -23.17568377 10.74707655 -28.703125 15.0078125 Z " fill="#214EA2" transform="translate(333.703125,65.9921875)"/>
<path d="M0 0 C6.95117935 5.788851 10.19622911 11.25201807 11.0703125 20.234375 C11.16989685 21.90014965 11.25900287 23.56675294 11.3203125 25.234375 C8.19533187 25.26333476 5.0703856 25.28115983 1.9453125 25.296875 C1.05585938 25.30525391 0.16640625 25.31363281 -0.75 25.32226562 C-1.60078125 25.32548828 -2.4515625 25.32871094 -3.328125 25.33203125 C-4.50640869 25.33988647 -4.50640869 25.33988647 -5.70849609 25.34790039 C-7.6796875 25.234375 -7.6796875 25.234375 -9.6796875 24.234375 C-10.12549488 22.79053432 -10.51300971 21.32838087 -10.8671875 19.859375 C-12.06415358 16.12555542 -12.4335557 15.40666726 -15.8046875 13.046875 C-20.61649923 12.03794673 -24.13318467 12.3902112 -28.6796875 14.234375 C-32.03338073 17.2526989 -32.83553898 20.93136178 -34.6796875 25.234375 C-40.9496875 25.234375 -47.2196875 25.234375 -53.6796875 25.234375 C-53.6796875 15.24534158 -51.51230644 9.33732131 -44.7421875 2.02734375 C-32.59801465 -8.52980651 -13.22642403 -8.71478668 0 0 Z " fill="#1D4A9E" transform="translate(170.6796875,67.765625)"/>
<path d="M0 0 C0.83265381 0.00523682 1.66530762 0.01047363 2.52319336 0.01586914 C3.42231445 0.0190918 4.32143555 0.02231445 5.24780273 0.02563477 C6.66609375 0.03820312 6.66609375 0.03820312 8.11303711 0.05102539 C9.06243164 0.05553711 10.01182617 0.06004883 10.98999023 0.06469727 C13.34356776 0.07652429 15.69702188 0.09300514 18.05053711 0.11352539 C18.22069336 0.8005957 18.39084961 1.48766602 18.56616211 2.19555664 C18.80850586 3.09661133 19.05084961 3.99766602 19.30053711 4.92602539 C19.53256836 5.8193457 19.76459961 6.71266602 20.00366211 7.63305664 C21.25579136 10.59985543 22.22643072 11.59285272 25.05053711 13.11352539 C29.71992567 13.87573441 34.3909523 14.06778665 38.55053711 11.67602539 C40.69280269 8.2184583 40.69280269 8.2184583 43.05053711 0.11352539 C49.65053711 0.11352539 56.25053711 0.11352539 63.05053711 0.11352539 C62.67014846 10.13042652 60.74002502 16.8518492 53.42553711 23.92602539 C44.40564453 31.14865818 34.31399944 32.28203432 23.05053711 31.11352539 C13.60891242 29.11648588 6.70951274 24.21404896 1.17553711 16.36352539 C-1.54934833 11.67782712 -2.55296582 6.4851167 -2.94946289 1.11352539 C-1.94946289 0.11352539 -1.94946289 0.11352539 0 0 Z " fill="#7F3584" transform="translate(118.949462890625,93.886474609375)"/>
<path d="M0 0 C1.70209877 0.00333092 1.70209877 0.00333092 3.43858337 0.00672913 C4.71983597 0.00680466 6.00108856 0.00688019 7.32116699 0.00695801 C8.73001646 0.01206542 10.13886554 0.01728143 11.54771423 0.02259827 C12.98118033 0.02446249 14.41464706 0.02588637 15.84811401 0.02688599 C19.62765755 0.03071079 23.40716288 0.04054075 27.18669128 0.05158997 C31.04075097 0.06180489 34.8948168 0.06638378 38.74888611 0.07142639 C46.31596085 0.08216306 53.88300407 0.09923903 61.45005798 0.12025452 C61.45005798 2.10025452 61.45005798 4.08025452 61.45005798 6.12025452 C46.93005798 6.12025452 32.41005798 6.12025452 17.45005798 6.12025452 C19.99443746 11.90470003 19.99443746 11.90470003 24.45005798 15.12025452 C29.57706227 16.50060182 32.94565843 15.95495454 37.75083923 14.10462952 C39.78848327 13.09135183 39.78848327 13.09135183 41.45005798 10.12025452 C47.64524271 10.53613497 52.7169511 11.72277345 58.45005798 14.12025452 C57.52631568 19.65039175 53.70368959 22.77051962 49.45005798 26.12025452 C38.65588693 32.23695145 28.38691447 33.30847626 16.46958923 30.19837952 C12.02592346 28.61176664 8.81559966 26.38986626 5.45005798 23.12025452 C4.95892517 22.64459045 4.46779236 22.16892639 3.96177673 21.67884827 C-1.42057571 15.85193574 -3.00997689 8.81475762 -3.54994202 1.12025452 C-2.54994202 0.12025452 -2.54994202 0.12025452 0 0 Z " fill="#8A488F" transform="translate(285.54994201660156,93.87974548339844)"/>
<path d="M0 0 C0.73734375 0.0825 1.4746875 0.165 2.234375 0.25 C9.93818577 1.52511351 16.36043739 5.43574352 21.0625 11.6875 C23 15 23 15 23 18 C20.77417611 18.84334329 18.54503974 19.67478551 16.3125 20.5 C15.68666016 20.73847656 15.06082031 20.97695312 14.41601562 21.22265625 C10.83856701 22.53376307 7.81625569 23.43713474 4 23 C2.3125 21.5625 2.3125 21.5625 1 20 C-2.91208871 18.04395564 -7.59912116 18.78208551 -11.8125 19.4375 C-15.40334483 22.00238916 -15.86564786 25.89180576 -17 30 C-17.33 30.66 -17.66 31.32 -18 32 C-24.27 32 -30.54 32 -37 32 C-38.49890939 26.00436243 -36.92113068 21.24458265 -33.9375 16 C-26.12587868 4.49767064 -14.01253461 -1.66074484 0 0 Z " fill="#224E9F" transform="translate(255,61)"/>
<path d="M0 0 C6.27 0 12.54 0 19 0 C20.171875 2.50651042 21.34375 5.01302083 22.515625 7.51953125 C24.10941057 10.18283082 25.31898828 11.46301925 28 13 C31.07637442 13.66040238 33.91545196 13.6147142 37 13 C40.06724457 10.68743996 40.06724457 10.68743996 42 8 C48.61242722 9.82221376 54.80520671 12.05223604 61 15 C58.46587895 21.49368519 54.03677782 25.71624522 48.0390625 29.109375 C39.35491421 32.63627047 27.80475418 32.28249021 19 29.4375 C10.95572053 25.99512815 4.55765207 20.04775327 1 12 C-1.59019426 3.18038853 -1.59019426 3.18038853 0 0 Z " fill="#803A85" transform="translate(218,94)"/>
<path d="M0 0 C6.6 0 13.2 0 20 0 C23.03732968 7.34247331 25.61920958 14.7338431 28 22.3125 C28.34740234 23.41102295 28.69480469 24.5095459 29.05273438 25.64135742 C29.73349103 27.79682075 30.41259626 29.95280652 31.08984375 32.109375 C31.85332768 34.53417376 32.6262159 36.95549302 33.40625 39.375 C33.94765625 41.0765625 33.94765625 41.0765625 34.5 42.8125 C34.7990625 43.74707031 35.098125 44.68164062 35.40625 45.64453125 C36 48 36 48 36 52 C33.22754986 52.13487595 30.46162912 52.23400807 27.6875 52.3125 C26.90181641 52.35439453 26.11613281 52.39628906 25.30664062 52.43945312 C24.1706543 52.46362305 24.1706543 52.46362305 23.01171875 52.48828125 C21.96697388 52.52755737 21.96697388 52.52755737 20.90112305 52.56762695 C19 52 19 52 17.50219727 50.0949707 C15.42280953 45.81081691 13.67407676 41.4308045 11.953125 36.9921875 C11.57766541 36.02975128 11.20220581 35.06731506 10.81536865 34.07571411 C10.02631884 32.04768375 9.23976913 30.0186791 8.45556641 27.98876953 C7.2500656 24.87516944 6.02969858 21.76766428 4.80859375 18.66015625 C4.04335464 16.68785523 3.2790008 14.71521046 2.515625 12.7421875 C1.96421844 11.34527176 1.96421844 11.34527176 1.40167236 9.9201355 C1.07092712 9.05558746 0.74018188 8.19103943 0.39941406 7.30029297 C0.10423889 6.54038055 -0.19093628 5.78046814 -0.49505615 4.99752808 C-1 3 -1 3 0 0 Z " fill="#2B55A2" transform="translate(45,41)"/>
<path d="M0 0 C6.6 0 13.2 0 20 0 C21 2 21 2 19.953125 5.3671875 C19.39408783 6.87303924 18.82552812 8.37537357 18.25 9.875 C17.94360596 10.68839844 17.63721191 11.50179687 17.3215332 12.33984375 C16.2258701 15.23109562 15.11433448 18.11589283 14 21 C13.54351074 22.1849707 13.08702148 23.36994141 12.61669922 24.59082031 C11.14845522 28.3970702 9.66922938 32.1989835 8.1875 36 C7.94543823 36.62340271 7.70337646 37.24680542 7.45397949 37.88909912 C6.75834037 39.677574 6.05700905 41.46383165 5.35546875 43.25 C4.94965576 44.28640625 4.54384277 45.3228125 4.12573242 46.390625 C3 49 3 49 1 52 C-1.95064148 52.2208564 -4.68368231 52.28060989 -7.625 52.1875 C-8.42679687 52.17396484 -9.22859375 52.16042969 -10.0546875 52.14648438 C-12.03674378 52.11109051 -14.01845551 52.05728234 -16 52 C-15.38482383 46.5710033 -14.09886369 41.68227912 -12.3828125 36.50390625 C-11.99607864 35.31534279 -11.99607864 35.31534279 -11.60153198 34.10276794 C-11.05784914 32.43538838 -10.5114256 30.76890023 -9.96240234 29.10327148 C-9.12921453 26.57528734 -8.30409484 24.04478549 -7.48046875 21.51367188 C-6.94838652 19.88526307 -6.41584929 18.25700285 -5.8828125 16.62890625 C-5.63894806 15.88282608 -5.39508362 15.13674591 -5.14382935 14.36805725 C-4.90703461 13.65048752 -4.67023987 12.93291779 -4.42626953 12.19360352 C-4.12101852 11.26596947 -4.12101852 11.26596947 -3.80960083 10.31959534 C-2.60128247 6.85763046 -1.28749043 3.4333078 0 0 Z " fill="#1B489E" transform="translate(102,41)"/>
<path d="M0 0 C1.55471732 0.00667834 3.10941852 0.01864451 4.6640625 0.03515625 C5.44523437 0.03966797 6.22640625 0.04417969 7.03125 0.04882812 C9.11721354 0.06132962 11.20314302 0.07921492 13.2890625 0.09765625 C14.2790625 0.09765625 15.2690625 0.09765625 16.2890625 0.09765625 C21.95572917 0.09765625 27.62239583 0.09765625 33.2890625 0.09765625 C32.75803039 6.90452241 30.27491798 12.74817205 27.7265625 19.03515625 C27.30181641 20.10056641 26.87707031 21.16597656 26.43945312 22.26367188 C25.3961382 24.8778205 24.34586017 27.48893577 23.2890625 30.09765625 C20.68379145 30.20558462 18.08297939 30.28490503 15.4765625 30.34765625 C14.73857422 30.38117188 14.00058594 30.4146875 13.24023438 30.44921875 C11.08203125 30.48828125 11.08203125 30.48828125 7.2890625 30.09765625 C4.51179849 27.21161323 3.34307978 23.97573431 2.02734375 20.23828125 C1.43276367 18.56572266 1.43276367 18.56572266 0.82617188 16.859375 C0.42205078 15.70050781 0.01792969 14.54164062 -0.3984375 13.34765625 C-0.81416016 12.17332031 -1.22988281 10.99898437 -1.65820312 9.7890625 C-2.68204224 6.89406915 -3.69935648 3.99695087 -4.7109375 1.09765625 C-3.7109375 0.09765625 -3.7109375 0.09765625 0 0 Z " fill="#7F3784" transform="translate(68.7109375,93.90234375)"/>
<path d="M0 0 C6.6 0 13.2 0 20 0 C20 9.9 20 19.8 20 30 C13.4 30 6.8 30 0 30 C0 20.1 0 10.2 0 0 Z " fill="#7A2A7E" transform="translate(190,94)"/>
<path d="M0 0 C0.02465881 3.96930989 0.04284023 7.93859034 0.05493164 11.90795898 C0.05997057 13.25920386 0.06680177 14.61044326 0.07543945 15.96166992 C0.08752419 17.90020434 0.09269828 19.838778 0.09765625 21.77734375 C0.10551147 23.52905884 0.10551147 23.52905884 0.11352539 25.31616211 C0 28 0 28 -1 29 C-2.41570123 29.08651611 -3.835595 29.10704904 -5.25390625 29.09765625 C-6.0229126 29.09515869 -6.79191895 29.09266113 -7.58422852 29.09008789 C-8.56705811 29.08098389 -9.5498877 29.07187988 -10.5625 29.0625 C-15.2340625 29.0315625 -15.2340625 29.0315625 -20 29 C-20 19.43 -20 9.86 -20 0 C-17.628125 -0.185625 -15.25625 -0.37125 -12.8125 -0.5625 C-12.07491455 -0.62381104 -11.3373291 -0.68512207 -10.57739258 -0.74829102 C-6.82241286 -1.0195826 -3.65481639 -0.81923054 0 0 Z " fill="#345BA5" transform="translate(210,64)"/>
<path d="M0 0 C0.66 0.99 1.32 1.98 2 3 C2.99 3.33 3.98 3.66 5 4 C5.33 6.64 5.66 9.28 6 12 C6.66 11.67 7.32 11.34 8 11 C8.65772428 7.97065509 8.65772428 7.97065509 9 5 C8.34 4.67 7.68 4.34 7 4 C9 3 9 3 10.859375 3.49609375 C13.36942995 4.08696435 14.78847583 3.75993185 17.25 3.0625 C18.4875 2.711875 19.725 2.36125 21 2 C21 2.66 21 3.32 21 4 C22.11375 3.690625 22.11375 3.690625 23.25 3.375 C26.32330841 2.95591249 27.42786866 3.38050989 30 5 C30.25 12.625 30.25 12.625 28 16 C25.8984375 16.2578125 25.8984375 16.2578125 23.375 16.125 C19.99372486 16.01229083 16.84766139 16.06586892 13.5 16.5625 C10 17 10 17 8 16 C7.12859375 16.15082031 6.2571875 16.30164063 5.359375 16.45703125 C1.53506595 17.07514632 -1.88738488 16.9432265 -5.75 16.6875 C-7.06484375 16.60886719 -8.3796875 16.53023437 -9.734375 16.44921875 C-13 16 -13 16 -15 14 C-15.27450545 10.65103346 -15.08628804 7.36523337 -15 4 C-11.7 4 -8.4 4 -5 4 C-5 3.34 -5 2.68 -5 2 C-3.35 1.34 -1.7 0.68 0 0 Z M-12 5 C-12 7.31 -12 9.62 -12 12 C-11.34 11.34 -10.68 10.68 -10 10 C-10.32041397 7.39719432 -10.32041397 7.39719432 -11 5 C-11.33 5 -11.66 5 -12 5 Z M-5 6 C-5 8.64 -5 11.28 -5 14 C-4.34 13.67 -3.68 13.34 -3 13 C-3 11.02 -3 9.04 -3 7 C-3.66 6.67 -4.32 6.34 -5 6 Z M1 6 C-0.29633621 7.06645115 -0.29633621 7.06645115 -0.0625 9.5625 C-0.041875 10.366875 -0.02125 11.17125 0 12 C0.99 12.495 0.99 12.495 2 13 C2 10.69 2 8.38 2 6 C1.67 6 1.34 6 1 6 Z M24 6 C23.67 6.66 23.34 7.32 23 8 C24.32 7.67 25.64 7.34 27 7 C26.01 6.67 25.02 6.34 24 6 Z M23 11 C23.33 11.66 23.66 12.32 24 13 C24.99 12.67 25.98 12.34 27 12 C25.68 11.67 24.36 11.34 23 11 Z " fill="#8D8D8D" transform="translate(284,128)"/>
<path d="M0 0 C1.32 0 2.64 0 4 0 C4 3.96 4 7.92 4 12 C6.31 12 8.62 12 11 12 C11 9.36 11 6.72 11 4 C12.98 4 14.96 4 17 4 C17.66 5.32 18.32 6.64 19 8 C19.185625 7.360625 19.37125 6.72125 19.5625 6.0625 C21 4 21 4 24.4375 3.3125 C26.2009375 3.1578125 26.2009375 3.1578125 28 3 C28.99 2.67 29.98 2.34 31 2 C31 2.66 31 3.32 31 4 C32.84725052 4.69159401 32.84725052 4.69159401 35 5 C35.99 4.34 36.98 3.68 38 3 C40.6875 3.375 40.6875 3.375 43 4 C44.66434402 8.20981134 45.06511827 10.62780122 44 15 C37.28364213 16.89398378 32.14609045 17.04373684 25.34765625 15.41015625 C22.85763723 14.78368777 22.85763723 14.78368777 20 16 C17.66666667 16 15.33333333 16 13 16 C12.01 16.33 11.02 16.66 10 17 C8.26675881 16.91538508 6.53607188 16.76395645 4.8125 16.5625 C3.224375 16.376875 1.63625 16.19125 0 16 C0 10.72 0 5.44 0 0 Z M24 5 C25 7 25 7 25 7 Z M14 7 C14 9.64 14 12.28 14 15 C16.33391203 12.21885944 16.33391203 12.21885944 15.625 9.3125 C15.41875 8.549375 15.2125 7.78625 15 7 C14.67 7 14.34 7 14 7 Z M29 6 C28.34 6.66 27.68 7.32 27 8 C28.65 8 30.3 8 32 8 C31.01 7.34 30.02 6.68 29 6 Z M23 8 C24 10 24 10 24 10 Z M22 11 C22 11.66 22 12.32 22 13 C22.99 13.33 23.98 13.66 25 14 C24.67 13.01 24.34 12.02 24 11 C23.34 11 22.68 11 22 11 Z M28 11 C28.33 11.66 28.66 12.32 29 13 C29.99 12.67 30.98 12.34 32 12 C30.68 11.67 29.36 11.34 28 11 Z M38 11 C39.485 11.99 39.485 11.99 41 13 C41 12.34 41 11.68 41 11 C40.01 11 39.02 11 38 11 Z " fill="#C9CAC9" transform="translate(320,128)"/>
<path d="M0 0 C3.26250137 1.89818262 5.38735287 3.29284844 6.6953125 6.9375 C7.3176423 10.43313973 7.20722094 12.50921357 5.8125 15.8125 C2.64448456 19.63596691 1.20643515 20.84433095 -3.875 21.5 C-7.25632262 21.3483145 -8.32708423 20.80969645 -11.4375 19 C-14.17751067 15.79218264 -15.00880732 14.11136431 -15.2421875 9.99609375 C-14.82987 6.59779949 -13.17991919 4.54323905 -11 2 C-7.28877404 -0.47415064 -4.30127435 -0.77098314 0 0 Z " fill="#E84A86" transform="translate(204,38)"/>
<path d="M0 0 C0.33 4.95 0.66 9.9 1 15 C2.32 14.67 3.64 14.34 5 14 C5.99 14.66 6.98 15.32 8 16 C8.25 19.0625 8.25 19.0625 8 22 C7.67 22.33 7.34 22.66 7 23 C5.02 23 3.04 23 1 23 C0.67 30.26 0.34 37.52 0 45 C11.63786243 43.74185271 20.41604788 41.88078613 30 35 C30.24609375 37.296875 30.24609375 37.296875 30 40 C25.93504526 44.34363958 20.57094248 46.74678411 14.6796875 47.05078125 C-2.27043091 46.72956909 -2.27043091 46.72956909 -4 45 C-4.08855161 42.3337397 -4.11524673 39.69352886 -4.09765625 37.02734375 C-4.0962413 36.22970108 -4.09482635 35.43205841 -4.09336853 34.61024475 C-4.08775316 32.05262565 -4.07519812 29.49509282 -4.0625 26.9375 C-4.05748698 25.20768355 -4.05292373 23.47786574 -4.04882812 21.74804688 C-4.03777875 17.49866447 -4.02050386 13.24934688 -4 9 C-5.32 9.33 -6.64 9.66 -8 10 C-8.33 11.65 -8.66 13.3 -9 15 C-9.66 15 -10.32 15 -11 15 C-9.53200483 10.10668277 -7.66971326 5.36956975 -5 1 C-3 0 -3 0 0 0 Z " fill="#8195B5" transform="translate(391,49)"/>
<path d="M0 0 C0.33 1.32 0.66 2.64 1 4 C2.2065625 4.185625 2.2065625 4.185625 3.4375 4.375 C4.283125 4.58125 5.12875 4.7875 6 5 C6.33 5.66 6.66 6.32 7 7 C7.556875 6.484375 8.11375 5.96875 8.6875 5.4375 C11 4 11 4 13.625 4.1875 C16 5 16 5 18 7 C18.5617284 13.17901235 18.5617284 13.17901235 16.83203125 15.70703125 C14.2838523 17.5054262 12.46191866 17.33144904 9.375 17.25 C8.39273438 17.23453125 7.41046875 17.2190625 6.3984375 17.203125 C4 17 4 17 3 16 C2.85884839 13.32941149 2.95752893 10.67567762 3 8 C2.01 8 1.02 8 0 8 C0.33 10.64 0.66 13.28 1 16 C-0.65 16.33 -2.3 16.66 -4 17 C-4 13.04 -4 9.08 -4 5 C-5.32 4.67 -6.64 4.34 -8 4 C-8 7.96 -8 11.92 -8 16 C-9.32 16 -10.64 16 -12 16 C-12 12.04 -12 8.08 -12 4 C-13.32 4 -14.64 4 -16 4 C-16 3.01 -16 2.02 -16 1 C-14.27111445 0.83044205 -12.54187557 0.66448486 -10.8125 0.5 C-9.84957031 0.4071875 -8.88664063 0.314375 -7.89453125 0.21875 C-5.24812333 0.01875156 -2.65239135 -0.03879183 0 0 Z M12 7 C11.67 7.66 11.34 8.32 11 9 C12.32 8.67 13.64 8.34 15 8 C14.01 7.67 13.02 7.34 12 7 Z M11 12 C11.33 12.66 11.66 13.32 12 14 C12.99 13.67 13.98 13.34 15 13 C13.68 12.67 12.36 12.34 11 12 Z " fill="#797979" transform="translate(234,127)"/>
<path d="M0 0 C6.6 0 13.2 0 20 0 C20 9.9 20 19.8 20 30 C13.4 30 6.8 30 0 30 C0 20.1 0 10.2 0 0 Z M2 3 C2 10.92 2 18.84 2 27 C6.95 27 11.9 27 17 27 C17 19.08 17 11.16 17 3 C12.05 3 7.1 3 2 3 Z " fill="#9D6FA0" transform="translate(190,94)"/>
<path d="M0 0 C1.56047445 0.00015913 3.12095416 0.00585397 4.68139648 0.01586914 C5.91115456 0.01799156 5.91115456 0.01799156 7.16575623 0.02015686 C9.79470406 0.0257725 12.42356797 0.0383276 15.05249023 0.05102539 C16.8304838 0.05603838 18.60847869 0.06060163 20.38647461 0.06469727 C24.75434569 0.07574701 29.12215371 0.09302208 33.48999023 0.11352539 C33.15999023 1.10352539 32.82999023 2.09352539 32.48999023 3.11352539 C32.48999023 2.45352539 32.48999023 1.79352539 32.48999023 1.11352539 C20.93999023 1.11352539 9.38999023 1.11352539 -2.51000977 1.11352539 C-2.51000977 21.57352539 -2.51000977 42.03352539 -2.51000977 63.11352539 C-1.52000977 63.11352539 -0.53000977 63.11352539 0.48999023 63.11352539 C0.98499023 60.14352539 0.98499023 60.14352539 1.48999023 57.11352539 C2.47999023 57.11352539 3.46999023 57.11352539 4.48999023 57.11352539 C4.48999023 55.46352539 4.48999023 53.81352539 4.48999023 52.11352539 C5.47999023 52.44352539 6.46999023 52.77352539 7.48999023 53.11352539 C6.05346919 58.02793951 3.94839409 62.11590897 1.36499023 66.48852539 C0.99245117 67.12918945 0.61991211 67.76985352 0.23608398 68.42993164 C-0.67434978 69.99401016 -1.59149168 71.55418073 -2.51000977 73.11352539 C-2.84000977 73.11352539 -3.17000977 73.11352539 -3.51000977 73.11352539 C-4.59119671 65.2284838 -4.65641467 57.43696786 -4.64282227 49.48852539 C-4.64349703 48.09130842 -4.6444685 46.69409157 -4.64572144 45.296875 C-4.64718637 42.38890449 -4.64508027 39.48096493 -4.64038086 36.57299805 C-4.63464155 32.83926985 -4.63799645 29.10561289 -4.64395332 25.37188721 C-4.64755541 22.49639339 -4.64642272 19.62091668 -4.64382553 16.74542236 C-4.64315748 15.3674519 -4.64398046 13.9894799 -4.64630508 12.61151123 C-4.64883035 10.69681832 -4.64430244 8.78211995 -4.6394043 6.86743164 C-4.6386087 5.77760986 -4.63781311 4.68778809 -4.63699341 3.56494141 C-4.43635718 -0.30833592 -4.02495317 0.13018037 0 0 Z " fill="#CEB7CE" transform="translate(362.510009765625,9.886474609375)"/>
<path d="M0 0 C6.6 0 13.2 0 20 0 C21 2 21 2 19.953125 5.3671875 C19.39408783 6.87303924 18.82552812 8.37537357 18.25 9.875 C17.94360596 10.68839844 17.63721191 11.50179687 17.3215332 12.33984375 C16.2258701 15.23109562 15.11433448 18.11589283 14 21 C13.54351074 22.1849707 13.08702148 23.36994141 12.61669922 24.59082031 C11.14845522 28.3970702 9.66922938 32.1989835 8.1875 36 C7.94543823 36.62340271 7.70337646 37.24680542 7.45397949 37.88909912 C6.75834037 39.677574 6.05700905 41.46383165 5.35546875 43.25 C4.94965576 44.28640625 4.54384277 45.3228125 4.12573242 46.390625 C3 49 3 49 1 52 C-1.95064148 52.2208564 -4.68368231 52.28060989 -7.625 52.1875 C-8.42679687 52.17396484 -9.22859375 52.16042969 -10.0546875 52.14648438 C-12.03674378 52.11109051 -14.01845551 52.05728234 -16 52 C-15.67 50.68 -15.34 49.36 -15 48 C-15 48.66 -15 49.32 -15 50 C-9.72 50 -4.44 50 1 50 C1.33 47.69 1.66 45.38 2 43 C2.66 43 3.32 43 4 43 C4 40.69 4 38.38 4 36 C5.485 35.505 5.485 35.505 7 35 C6.938125 34.01 6.87625 33.02 6.8125 32 C6.8125 27.54724375 8.29874475 24.05389202 10 20 C10.56838787 18.50222115 11.13110216 17.00227417 11.6875 15.5 C12.3371875 13.7675 12.3371875 13.7675 13 12 C12.175 11.21625 11.35 10.4325 10.5 9.625 C8 7 8 7 8 5 C11.61973402 3.68373308 14.09567131 3 18 3 C18.33 2.34 18.66 1.68 19 1 C12.73 1 6.46 1 0 1 C0 0.67 0 0.34 0 0 Z " fill="#5A7CB5" transform="translate(102,41)"/>
<path d="M0 0 C20.46 0 40.92 0 62 0 C62 1.32 62 2.64 62 4 C55.8944529 4.02464513 49.78893449 4.04283371 43.68334961 4.05493164 C41.60456844 4.05997288 39.52579084 4.06680574 37.44702148 4.07543945 C34.46597414 4.08751422 31.48497351 4.09323024 28.50390625 4.09765625 C27.10078941 4.10539818 27.10078941 4.10539818 25.66932678 4.11329651 C24.37810158 4.11340981 24.37810158 4.11340981 23.06079102 4.11352539 C21.91828636 4.11685631 21.91828636 4.11685631 20.75270081 4.12025452 C19 4 19 4 18 3 C15.14122091 2.76298761 12.30116703 2.57780818 9.4375 2.4375 C8.63119141 2.39431641 7.82488281 2.35113281 6.99414062 2.30664062 C4.99631195 2.20024738 2.9981793 2.09959112 1 2 C0.67 3.32 0.34 4.64 0 6 C0 4.02 0 2.04 0 0 Z " fill="#6F3373" transform="translate(284,95)"/>
<path d="M0 0 C1.33332095 2.6666419 0.67102033 4.16680303 0 7 C-0.66 7 -1.32 7 -2 7 C-1.7215625 7.928125 -1.7215625 7.928125 -1.4375 8.875 C-1 11 -1 11 -2 13 C18.46 13 38.92 13 60 13 C60 12.34 60 11.68 60 11 C62.64 11 65.28 11 68 11 C59.83074447 16.44617035 47.52024833 15.27673004 38.04296875 15.1953125 C36.77399246 15.1924826 35.50501617 15.18965271 34.19758606 15.18673706 C30.87185523 15.17752987 27.54641536 15.15965633 24.22076416 15.1373291 C20.80800856 15.11663518 17.39522253 15.10768574 13.98242188 15.09765625 C7.32153639 15.07575316 0.66078493 15.04239568 -6 15 C-5.29920108 11.15827097 -4.24403589 8.16160747 -2.4375 4.6875 C-1.98246094 3.80449219 -1.52742188 2.92148438 -1.05859375 2.01171875 C-0.53458984 1.01591797 -0.53458984 1.01591797 0 0 Z " fill="#9AAFCC" transform="translate(356,110)"/>
<path d="M0 0 C0.33 0.66 0.66 1.32 1 2 C1.33 1.34 1.66 0.68 2 0 C5.0625 -0.625 5.0625 -0.625 8 -1 C8 0.32 8 1.64 8 3 C7.01 3 6.02 3 5 3 C5.33 5.97 5.66 8.94 6 12 C0.6893911 13.08379774 -2.89547952 12.83762737 -8 11 C-9 10 -9 10 -9.25 6.125 C-9.20339548 3.52912846 -9.1319828 2.24196847 -7.875 -0.0625 C-5.009198 -1.495401 -3.00451848 -0.84910305 0 0 Z M-5 2 C-5.33 2.66 -5.66 3.32 -6 4 C-4.68 3.67 -3.36 3.34 -2 3 C-2.99 2.67 -3.98 2.34 -5 2 Z M-6 7 C-5.67 7.66 -5.34 8.32 -5 9 C-4.01 8.67 -3.02 8.34 -2 8 C-3.32 7.67 -4.64 7.34 -6 7 Z " fill="#B0B0B0" transform="translate(394,132)"/>
<path d="M0 0 C1 4 1 4 -2 14 C18.46 14 38.92 14 60 14 C60.33 12.68 60.66 11.36 61 10 C61 11.98 61 13.96 61 16 C39.88 16 18.76 16 -3 16 C-3 8.58979514 -2.6772577 6.24693463 0 0 Z " fill="#91A7CA" transform="translate(286,77)"/>
<path d="M0 0 C0.99 0.33 1.98 0.66 3 1 C3.268125 1.825 3.53625 2.65 3.8125 3.5 C4.4003125 4.7375 4.4003125 4.7375 5 6 C8.05272465 6.89830839 8.05272465 6.89830839 11 7 C10.67 8.32 10.34 9.64 10 11 C12.97 11 15.94 11 19 11 C18.34 8.03 17.68 5.06 17 2 C17.66 2 18.32 2 19 2 C20.73734147 5.80043446 21 7.59714577 21 12 C0.54 12 -19.92 12 -41 12 C-40.67 10.68 -40.34 9.36 -40 8 C-40 8.99 -40 9.98 -40 11 C-39.24203125 10.9278125 -38.4840625 10.855625 -37.703125 10.78125 C-24.15311937 9.67762963 -10.58517907 9.90756447 3 10 C2.01 6.7 1.02 3.4 0 0 Z " fill="#1D4388" transform="translate(325,79)"/>
<path d="M0 0 C0.33 0.66 0.66 1.32 1 2 C2.11375 1.690625 2.11375 1.690625 3.25 1.375 C6.32330841 0.95591249 7.42786866 1.38050989 10 3 C10.25 10.625 10.25 10.625 8 14 C5.69 13.34 3.38 12.68 1 12 C0.67 9.69 0.34 7.38 0 5 C-1.32 5 -2.64 5 -4 5 C-4 7.64 -4 10.28 -4 13 C-4.66 13 -5.32 13 -6 13 C-6 9.7 -6 6.4 -6 3 C-5.01 3 -4.02 3 -3 3 C-3 2.34 -3 1.68 -3 1 C-2.01 0.67 -1.02 0.34 0 0 Z M4 4 C3.67 4.66 3.34 5.32 3 6 C4.32 5.67 5.64 5.34 7 5 C6.01 4.67 5.02 4.34 4 4 Z M3 9 C3.33 9.66 3.66 10.32 4 11 C4.99 10.67 5.98 10.34 7 10 C5.68 9.67 4.36 9.34 3 9 Z " fill="#AEADAE" transform="translate(304,130)"/>
<path d="M0 0 C9.9 0 19.8 0 30 0 C30.33 0.66 30.66 1.32 31 2 C21.76 2.33 12.52 2.66 3 3 C2.31886363 7.08681823 1.86262337 10.48906184 1.79467773 14.54638672 C1.77473251 15.60703339 1.75478729 16.66768005 1.73423767 17.76046753 C1.71752518 18.88881012 1.70081268 20.01715271 1.68359375 21.1796875 C1.66281265 22.3475882 1.64203156 23.51548889 1.62062073 24.71878052 C1.55540825 28.43746238 1.49637199 32.15621289 1.4375 35.875 C1.39428787 38.40104867 1.35067272 40.92709049 1.30664062 43.453125 C1.19975592 49.63534478 1.09793764 55.81763236 1 62 C0.67 62 0.34 62 0 62 C0 41.54 0 21.08 0 0 Z " fill="#6F3071" transform="translate(360,11)"/>
<path d="M0 0 C0.99 0 1.98 0 3 0 C3 1.98 3 3.96 3 6 C4.98 6 6.96 6 9 6 C9 4.02 9 2.04 9 0 C10.32 0 11.64 0 13 0 C13.33 5.28 13.66 10.56 14 16 C12.35 15.67 10.7 15.34 9 15 C9 13.02 9 11.04 9 9 C7.02 9 5.04 9 3 9 C3 10.98 3 12.96 3 15 C2.01 15 1.02 15 0 15 C0 10.05 0 5.1 0 0 Z " fill="#747474" transform="translate(371,128)"/>
<path d="M0 0 C0 11.88 0 23.76 0 36 C-0.99 35.67 -1.98 35.34 -3 35 C-2.98428955 34.41508789 -2.9685791 33.83017578 -2.95239258 33.22753906 C-2.88989733 30.56845836 -2.85096431 27.90953236 -2.8125 25.25 C-2.78736328 24.32960938 -2.76222656 23.40921875 -2.73632812 22.4609375 C-2.72666016 21.57148437 -2.71699219 20.68203125 -2.70703125 19.765625 C-2.6913208 18.94868164 -2.67561035 18.13173828 -2.65942383 17.29003906 C-3.07620541 14.48759373 -4.16195148 13.11152979 -6 11 C-6.99 11.99 -7.98 12.98 -9 14 C-8.34 11.36 -7.68 8.72 -7 6 C-6.34 6 -5.68 6 -5 6 C-4.814375 4.7934375 -4.814375 4.7934375 -4.625 3.5625 C-4.41875 2.716875 -4.2125 1.87125 -4 1 C-2 0 -2 0 0 0 Z " fill="#1A458E" transform="translate(387,58)"/>
<path d="M0 0 C1.55471732 0.00667834 3.10941852 0.01864451 4.6640625 0.03515625 C5.44523437 0.03966797 6.22640625 0.04417969 7.03125 0.04882812 C9.11721354 0.06132962 11.20314302 0.07921492 13.2890625 0.09765625 C14.2790625 0.09765625 15.2690625 0.09765625 16.2890625 0.09765625 C21.95572917 0.09765625 27.62239583 0.09765625 33.2890625 0.09765625 C32.9590625 2.40765625 32.6290625 4.71765625 32.2890625 7.09765625 C32.10601562 6.453125 31.92296875 5.80859375 31.734375 5.14453125 C30.38094355 2.72320681 30.38094355 2.72320681 27.03125 2.48828125 C25.75507812 2.441875 24.47890625 2.39546875 23.1640625 2.34765625 C21.24207031 2.26257813 21.24207031 2.26257813 19.28125 2.17578125 C18.29382813 2.15 17.30640625 2.12421875 16.2890625 2.09765625 C15.9590625 3.41765625 15.6290625 4.73765625 15.2890625 6.09765625 C14.2990625 5.43765625 13.3090625 4.77765625 12.2890625 4.09765625 C9.38457258 3.77995069 9.38457258 3.77995069 6.2265625 3.84765625 C5.16308594 3.8425 4.09960938 3.83734375 3.00390625 3.83203125 C0.14137347 3.8220849 0.14137347 3.8220849 -1.7109375 6.09765625 C-2.7009375 4.44765625 -3.6909375 2.79765625 -4.7109375 1.09765625 C-3.7109375 0.09765625 -3.7109375 0.09765625 0 0 Z " fill="#A276A6" transform="translate(68.7109375,93.90234375)"/>
<path d="M0 0 C0.99 0 1.98 0 3 0 C3.33 4.95 3.66 9.9 4 15 C5.32 14.67 6.64 14.34 8 14 C8.99 14.66 9.98 15.32 11 16 C11.25 19.0625 11.25 19.0625 11 22 C10.67 22.33 10.34 22.66 10 23 C8.02 23 6.04 23 4 23 C3.67 30.26 3.34 37.52 3 45 C2.67 45 2.34 45 2 45 C2 30.48 2 15.96 2 1 C1.34 0.67 0.68 0.34 0 0 Z " fill="#EAD4E4" transform="translate(388,49)"/>
<path d="M0 0 C2.375 0.9375 2.375 0.9375 4.375 3.9375 C3.92216981 10.39033019 3.92216981 10.39033019 1.375 12.9375 C-2.25 13.0625 -2.25 13.0625 -5.625 12.9375 C-7.20883234 4.88061377 -7.20883234 4.88061377 -5 1.3125 C-2.625 -0.0625 -2.625 -0.0625 0 0 Z M-1.625 2.9375 C-2.285 3.5975 -2.945 4.2575 -3.625 4.9375 C-2.305 4.6075 -0.985 4.2775 0.375 3.9375 C-0.285 3.6075 -0.945 3.2775 -1.625 2.9375 Z M-3.625 7.9375 C-1.645 8.9275 -1.645 8.9275 0.375 9.9375 C0.375 9.2775 0.375 8.6175 0.375 7.9375 C-0.945 7.9375 -2.265 7.9375 -3.625 7.9375 Z " fill="#8D8D8D" transform="translate(408.625,131.0625)"/>
<path d="M0 0 C3.63 0 7.26 0 11 0 C11 0.99 11 1.98 11 3 C8.69 3 6.38 3 4 3 C4 3.99 4 4.98 4 6 C5.98 6 7.96 6 10 6 C10 6.99 10 7.98 10 9 C8.02 9 6.04 9 4 9 C4 10.98 4 12.96 4 15 C2.68 15 1.36 15 0 15 C0 10.05 0 5.1 0 0 Z " fill="#B3B3B3" transform="translate(258,128)"/>
<path d="M0 0 C2.4375 0.75 2.4375 0.75 4.4375 2.75 C4.98936722 8.82053942 4.98936722 8.82053942 3.25 11.75 C1.4375 12.75 1.4375 12.75 -1.125 12.5625 C-3.5625 11.75 -3.5625 11.75 -5.5625 9.75 C-5.86328125 7.875 -5.86328125 7.875 -5.875 5.75 C-5.89175781 5.04875 -5.90851563 4.3475 -5.92578125 3.625 C-5.80589844 3.00625 -5.68601563 2.3875 -5.5625 1.75 C-2.5625 -0.25 -2.5625 -0.25 0 0 Z M-1.5625 2.75 C-1.8925 3.41 -2.2225 4.07 -2.5625 4.75 C-1.2425 4.42 0.0775 4.09 1.4375 3.75 C0.4475 3.42 -0.5425 3.09 -1.5625 2.75 Z M-2.5625 7.75 C-2.2325 8.41 -1.9025 9.07 -1.5625 9.75 C-0.5725 9.42 0.4175 9.09 1.4375 8.75 C0.1175 8.42 -1.2025 8.09 -2.5625 7.75 Z " fill="#272727" transform="translate(247.5625,131.25)"/>
<path d="M0 0 C1.15650386 3.92691892 0.62982575 6.45046206 -0.375 10.4375 C-1.53215578 15.02085446 -1.53215578 15.02085446 -2.4140625 19.66015625 C-3 22 -3 22 -4.5078125 23.96875 C-6.37330614 26.50816542 -6.52482217 28.39110416 -6.875 31.5 C-7.67532112 36.66759067 -7.67532112 36.66759067 -10.625 39.6875 C-11.40875 40.120625 -12.1925 40.55375 -13 41 C-10.69049368 31.96068031 -7.79417637 23.14549164 -4.8125 14.3125 C-4.34411798 12.91741271 -3.87601717 11.52223097 -3.40820312 10.12695312 C-2.27536759 6.75020966 -1.13875892 3.37475118 0 0 Z " fill="#5F7DB0" transform="translate(100,47)"/>
<path d="M0 0 C0 1.32 0 2.64 0 4 C-1.65 4 -3.3 4 -5 4 C-5 7.96 -5 11.92 -5 16 C-6.32 16 -7.64 16 -9 16 C-9 12.04 -9 8.08 -9 4 C-10.32 4 -11.64 4 -13 4 C-13 3.01 -13 2.02 -13 1 C-11.20843648 0.83222817 -9.4167455 0.66581706 -7.625 0.5 C-6.62726563 0.4071875 -5.62953125 0.314375 -4.6015625 0.21875 C-2 0 -2 0 0 0 Z " fill="#818181" transform="translate(231,127)"/>
<path d="M0 0 C1.52519276 0.08937803 3.04681929 0.24537146 4.5625 0.4375 C5.80193359 0.59025391 5.80193359 0.59025391 7.06640625 0.74609375 C7.70449219 0.82988281 8.34257812 0.91367188 9 1 C8.01 1.33 7.02 1.66 6 2 C6 5.3 6 8.6 6 12 C6.66 12 7.32 12 8 12 C8 9.36 8 6.72 8 4 C9.875 4.125 9.875 4.125 12 5 C13.25 8.0625 13.25 8.0625 14 11 C16.475 11.495 16.475 11.495 19 12 C19 12.33 19 12.66 19 13 C18.443125 12.98839844 17.88625 12.97679687 17.3125 12.96484375 C12.10221657 12.90323567 7.1562049 13.25000656 2 14 C1.34 13.01 0.68 12.02 0 11 C0.66 11 1.32 11 2 11 C0.94729537 9.84188612 0.94729537 9.84188612 -1 9 C-0.34 6.69 0.32 4.38 1 2 C0.34 1.67 -0.32 1.34 -1 1 C-0.67 0.67 -0.34 0.34 0 0 Z " fill="#D9D9D9" transform="translate(292,131)"/>
<path d="M0 0 C0.83265381 0.00523682 1.66530762 0.01047363 2.52319336 0.01586914 C3.42231445 0.0190918 4.32143555 0.02231445 5.24780273 0.02563477 C6.66609375 0.03820312 6.66609375 0.03820312 8.11303711 0.05102539 C9.06243164 0.05553711 10.01182617 0.06004883 10.98999023 0.06469727 C13.34356776 0.07652429 15.69702188 0.09300514 18.05053711 0.11352539 C18.22069336 0.8005957 18.39084961 1.48766602 18.56616211 2.19555664 C18.80850586 3.09661133 19.05084961 3.99766602 19.30053711 4.92602539 C19.53256836 5.8193457 19.76459961 6.71266602 20.00366211 7.63305664 C21.25298525 10.59320663 22.24838604 11.57431565 25.05053711 13.11352539 C27.6292732 13.68336987 27.6292732 13.68336987 30.30053711 13.80102539 C31.19256836 13.86676758 32.08459961 13.93250977 33.00366211 14.00024414 C33.67913086 14.03762695 34.35459961 14.07500977 35.05053711 14.11352539 C32.39000203 16.77406047 30.77998515 16.89836493 27.05053711 17.11352539 C23.67553711 15.67602539 23.67553711 15.67602539 21.05053711 14.11352539 C21.05053711 13.45352539 21.05053711 12.79352539 21.05053711 12.11352539 C19.40053711 11.45352539 17.75053711 10.79352539 16.05053711 10.11352539 C15.92553711 3.36352539 15.92553711 3.36352539 17.05053711 1.11352539 C11.11053711 1.11352539 5.17053711 1.11352539 -0.94946289 1.11352539 C-0.94946289 3.42352539 -0.94946289 5.73352539 -0.94946289 8.11352539 C-1.27946289 8.11352539 -1.60946289 8.11352539 -1.94946289 8.11352539 C-2.3300951 5.78743969 -2.66216234 3.45297275 -2.94946289 1.11352539 C-1.94946289 0.11352539 -1.94946289 0.11352539 0 0 Z " fill="#B490BA" transform="translate(118.949462890625,93.886474609375)"/>
<path d="M0 0 C1.33332095 2.6666419 0.67102033 4.16680303 0 7 C-0.66 7 -1.32 7 -2 7 C-2.33 9.64 -2.66 12.28 -3 15 C2.94 15 8.88 15 15 15 C15.33 12.36 15.66 9.72 16 7 C16.66 6.01 17.32 5.02 18 4 C20.625 3.8125 20.625 3.8125 23 4 C21.79557292 5.33463542 20.59114583 6.66927083 19.38671875 8.00390625 C17.43537882 10.67009658 17.43537882 10.67009658 15 17 C8.73 17 2.46 17 -4 17 C-4 8 -4 8 -2 4 C-1.62875 3.236875 -1.2575 2.47375 -0.875 1.6875 C-0.58625 1.130625 -0.2975 0.57375 0 0 Z " fill="#92ABCA" transform="translate(121,76)"/>
<path d="M0 0 C-0.55619669 4.6889493 -1.88182673 8.19924267 -4.0625 12.375 C-4.61035156 13.43460938 -5.15820312 14.49421875 -5.72265625 15.5859375 C-6.14417969 16.38257812 -6.56570313 17.17921875 -7 18 C-7.33 17.34 -7.66 16.68 -8 16 C-8.66 15.67 -9.32 15.34 -10 15 C-9.01 15 -8.02 15 -7 15 C-7.57401413 10.76132918 -7.57401413 10.76132918 -9.125 6.8125 C-10 5 -10 5 -9 2 C-5.99208089 -0.04108797 -3.57804656 -0.19878036 0 0 Z " fill="#803783" transform="translate(395,11)"/>
<path d="M0 0 C9.31526469 4.51649197 14.14885121 13.83059811 18 23 C18 23.66 18 24.32 18 25 C17.34 25 16.68 25 16 25 C16 24.01 16 23.02 16 22 C15.01 22 14.02 22 13 22 C12.5359375 20.329375 12.5359375 20.329375 12.0625 18.625 C10.19398446 13.502533 6.73453911 10.13153813 2.9609375 6.296875 C1.05900361 4.0691118 0.3797874 2.85495356 0 0 Z " fill="#6F88B6" transform="translate(434,21)"/>
<path d="M0 0 C1.62950412 4.12168689 2.26264601 6.70700357 1 11 C-1.31 11 -3.62 11 -6 11 C-6 10.01 -6 9.02 -6 8 C-4.02 8.495 -4.02 8.495 -2 9 C-2 8.34 -2 7.68 -2 7 C-2.639375 6.855625 -3.27875 6.71125 -3.9375 6.5625 C-6 6 -6 6 -7 5 C-7.04063832 3.33382885 -7.042721 1.66611905 -7 0 C-4.3333581 -1.33332095 -2.83319697 -0.67102033 0 0 Z " fill="#666666" transform="translate(363,132)"/>
<path d="M0 0 C0.24609375 2.296875 0.24609375 2.296875 0 5 C-4.35553725 9.65414382 -9.82179893 11.65421175 -16.0546875 12.08984375 C-18 12 -18 12 -21 11 C-21 10.34 -21 9.68 -21 9 C-20.2265625 8.85304688 -19.453125 8.70609375 -18.65625 8.5546875 C-12.16371489 7.15654256 -7.50852643 5.53210013 -2.42578125 1.20703125 C-1 0 -1 0 0 0 Z " fill="#4C6DA4" transform="translate(421,84)"/>
<path d="M0 0 C0.99 0.33 1.98 0.66 3 1 C4.2236068 1.0745356 4.2236068 1.0745356 6 0 C2.98711066 6.73469382 -2.82526189 11.23491579 -9 15 C-9.66 14.67 -10.32 14.34 -11 14 C-11 13.01 -11 12.02 -11 11 C-9.68 11 -8.36 11 -7 11 C-7 9.68 -7 8.36 -7 7 C-6.01 6.67 -5.02 6.34 -4 6 C-2.90833725 4.06669397 -2.90833725 4.06669397 -2 2 C-1.34 1.34 -0.68 0.68 0 0 Z " fill="#5879B7" transform="translate(439,104)"/>
<path d="M0 0 C0.66 0 1.32 0 2 0 C2 14.19 2 28.38 2 43 C1.67 43 1.34 43 1 43 C1 31.12 1 19.24 1 7 C-0.32 7.33 -1.64 7.66 -3 8 C-3.33 9.65 -3.66 11.3 -4 13 C-4.66 13 -5.32 13 -6 13 C-4.58707905 8.1725201 -2.57025846 4.2837641 0 0 Z " fill="#85A4D3" transform="translate(386,51)"/>
<path d="M0 0 C1.36948916 3.95630201 0.77791742 5.33249547 0 10 C5.61 10 11.22 10 17 10 C17.33 7.36 17.66 4.72 18 2 C19.32 1.67 20.64 1.34 22 1 C21.52269162 2.4589426 21.04308958 3.91713496 20.5625 5.375 C20.29566406 6.18710938 20.02882812 6.99921875 19.75390625 7.8359375 C19 10 19 10 18 12 C11.73 12 5.46 12 -1 12 C-2.24142712 7.03429151 -1.37261666 4.84452938 0 0 Z " fill="#94A9CB" transform="translate(219,81)"/>
<path d="M0 0 C1 2 1 2 -0.0390625 5.44140625 C-0.55895036 6.81844256 -1.08801411 8.19204076 -1.625 9.5625 C-1.87378906 10.26052734 -2.12257813 10.95855469 -2.37890625 11.67773438 C-3.1640625 13.69140625 -3.1640625 13.69140625 -5 17 C-7.28515625 17.9609375 -7.28515625 17.9609375 -10 18 C-11.09957031 18.03222656 -12.19914062 18.06445312 -13.33203125 18.09765625 C-15.05486328 18.08025391 -15.05486328 18.08025391 -16.8125 18.0625 C-17.97394531 18.05347656 -19.13539062 18.04445313 -20.33203125 18.03515625 C-21.21246094 18.02355469 -22.09289062 18.01195313 -23 18 C-22.67 16.68 -22.34 15.36 -22 14 C-22 14.66 -22 15.32 -22 16 C-16.72 16 -11.44 16 -6 16 C-5.67 13.69 -5.34 11.38 -5 9 C-4.34 9 -3.68 9 -3 9 C-3.061875 7.88625 -3.12375 6.7725 -3.1875 5.625 C-3.0946875 3.830625 -3.0946875 3.830625 -3 2 C-2.01 1.34 -1.02 0.68 0 0 Z " fill="#8399BD" transform="translate(109,75)"/>
<path d="M0 0 C0.99 0.66 1.98 1.32 3 2 C3.99 2 4.98 2 6 2 C8 5 8 5 8 8 C6.23358317 8.6987693 4.46167336 9.38366583 2.6875 10.0625 C1.70136719 10.44535156 0.71523438 10.82820313 -0.30078125 11.22265625 C-3 12 -3 12 -6 11 C-5.34 11 -4.68 11 -4 11 C-4 10.34 -4 9.68 -4 9 C-2.68 8.67 -1.36 8.34 0 8 C-0.185625 7.05125 -0.37125 6.1025 -0.5625 5.125 C-1 2 -1 2 0 0 Z " fill="#466AAD" transform="translate(270,71)"/>
<path d="M0 0 C0.33 0.66 0.66 1.32 1 2 C1.6705542 1.98952637 2.3411084 1.97905273 3.03198242 1.96826172 C6.08378316 1.92656829 9.13552384 1.90063147 12.1875 1.875 C13.24259766 1.85824219 14.29769531 1.84148438 15.38476562 1.82421875 C16.40634766 1.81777344 17.42792969 1.81132813 18.48046875 1.8046875 C19.41785889 1.79421387 20.35524902 1.78374023 21.32104492 1.77294922 C24.21630812 2.01833287 26.37062697 2.79478381 29 4 C29 4.66 29 5.32 29 6 C31.31 6.33 33.62 6.66 36 7 C36.495 9.97 36.495 9.97 37 13 C35.93072266 12.27683594 35.93072266 12.27683594 34.83984375 11.5390625 C33.88207031 10.90742187 32.92429687 10.27578125 31.9375 9.625 C30.99777344 8.99851562 30.05804688 8.37203125 29.08984375 7.7265625 C22.61954443 4.11104758 16.30139238 3.63923333 9.0625 3.375 C8.18787109 3.33632813 7.31324219 3.29765625 6.41210938 3.2578125 C4.27505369 3.1643893 2.13755706 3.08114602 0 3 C0 2.01 0 1.02 0 0 Z " fill="#7E97C2" transform="translate(384,39)"/>
<path d="M0 0 C0 1.98 0 3.96 0 6 C-2.31 6 -4.62 6 -7 6 C-6.73323796 7.98491642 -6.73323796 7.98491642 -6 10 C-5.01 10.33 -4.02 10.66 -3 11 C-4.66611905 11.042721 -6.33382885 11.04063832 -8 11 C-9 10 -9 10 -9.25 6.125 C-9.20339548 3.52912846 -9.1319828 2.24196847 -7.875 -0.0625 C-5.06457284 -1.46771358 -2.96791942 -0.72549141 0 0 Z M-5 2 C-5.33 2.66 -5.66 3.32 -6 4 C-4.68 3.67 -3.36 3.34 -2 3 C-2.99 2.67 -3.98 2.34 -5 2 Z " fill="#3A3A3A" transform="translate(394,132)"/>
<path d="M0 0 C3 2 3 2 3.875 5.8125 C4.22580172 9.7643888 3.5863108 11.87859041 1 15 C-1.4821962 17.66606259 -3.46225306 18.24059386 -7 18.4375 C-10.21394837 18.33556507 -10.86249349 18.11000521 -13.5 16 C-13.995 15.34 -14.49 14.68 -15 14 C-12.69 14 -10.38 14 -8 14 C-8 14.66 -8 15.32 -8 16 C-6.68 16 -5.36 16 -4 16 C-3.67 15.01 -3.34 14.02 -3 13 C-0.9375 12.3125 -0.9375 12.3125 1 12 C1.02712066 10.56260487 1.04645067 9.12506137 1.0625 7.6875 C1.07410156 6.88699219 1.08570313 6.08648437 1.09765625 5.26171875 C1.09657855 2.83138666 1.09657855 2.83138666 0 0 Z " fill="#E997B9" transform="translate(207,41)"/>
<path d="M0 0 C1.03362671 -0.01377686 1.03362671 -0.01377686 2.08813477 -0.02783203 C6.06818998 -0.00374843 9.31558311 0.27434074 12.8125 2.25 C13.1425 3.24 13.4725 4.23 13.8125 5.25 C13.1525 5.25 12.4925 5.25 11.8125 5.25 C11.8125 4.59 11.8125 3.93 11.8125 3.25 C10.4925 3.25 9.1725 3.25 7.8125 3.25 C7.8125 3.91 7.8125 4.57 7.8125 5.25 C6.1625 5.25 4.5125 5.25 2.8125 5.25 C2.4825 4.59 2.1525 3.93 1.8125 3.25 C2.4725 3.25 3.1325 3.25 3.8125 3.25 C3.8125 2.59 3.8125 1.93 3.8125 1.25 C-6.5825 2.735 -6.5825 2.735 -17.1875 4.25 C-16.1875 2.25 -16.1875 2.25 -13.125 1.125 C-8.78021818 0.12964998 -4.43880421 0.03328725 0 0 Z " fill="#1C4489" transform="translate(316.1875,62.75)"/>
<path d="M0 0 C0.66 0.33 1.32 0.66 2 1 C-0.17684732 10.48849331 -2.78847398 18.64418661 -8 27 C-8.33 26.34 -8.66 25.68 -9 25 C-8.67 24.34 -8.34 23.68 -8 23 C-8.66 23 -9.32 23 -10 23 C-9.67 21.35 -9.34 19.7 -9 18 C-8.34 18 -7.68 18 -7 18 C-7 17.34 -7 16.68 -7 16 C-6.01 15.67 -5.02 15.34 -4 15 C-3.11959804 12.45301774 -2.4240961 10.04808726 -1.8125 7.4375 C-1.54663086 6.37112305 -1.54663086 6.37112305 -1.27539062 5.28320312 C-0.83877677 3.52494731 -0.41789566 1.76279845 0 0 Z " fill="#849EC6" transform="translate(454,77)"/>
<path d="M0 0 C6.27 0 12.54 0 19 0 C19.99 2.97 20.98 5.94 22 9 C21.01 9 20.02 9 19 9 C18.67 7.02 18.34 5.04 18 3 C12.39 2.67 6.78 2.34 1 2 C1 3.98 1 5.96 1 8 C0.67 8 0.34 8 0 8 C-1.125 2.25 -1.125 2.25 0 0 Z " fill="#B18CB2" transform="translate(218,94)"/>
<path d="M0 0 C0.83265381 0.00523682 1.66530762 0.01047363 2.52319336 0.01586914 C3.42231445 0.0190918 4.32143555 0.02231445 5.24780273 0.02563477 C6.66609375 0.03820313 6.66609375 0.03820313 8.11303711 0.05102539 C9.06243164 0.05553711 10.01182617 0.06004883 10.98999023 0.06469727 C13.34356776 0.07652429 15.69702188 0.09300514 18.05053711 0.11352539 C18.05053711 0.77352539 18.05053711 1.43352539 18.05053711 2.11352539 C9.63553711 2.60852539 9.63553711 2.60852539 1.05053711 3.11352539 C1.05053711 5.75352539 1.05053711 8.39352539 1.05053711 11.11352539 C-1.13922062 7.8288888 -1.94752852 4.90656264 -2.94946289 1.11352539 C-1.94946289 0.11352539 -1.94946289 0.11352539 0 0 Z " fill="#8CA0C6" transform="translate(46.949462890625,40.886474609375)"/>
<path d="M0 0 C1.55932272 3.11864545 0.65549131 5.66295335 0 9 C-0.66 9.66 -1.32 10.32 -2 11 C-2.33 12.32 -2.66 13.64 -3 15 C1.95 15 6.9 15 12 15 C12 13.02 12 11.04 12 9 C12.66 9 13.32 9 14 9 C13.67 11.31 13.34 13.62 13 16 C7.06 16 1.12 16 -5 16 C-4.67 13.36 -4.34 10.72 -4 8 C-3.34 8 -2.68 8 -2 8 C-1.855625 6.865625 -1.71125 5.73125 -1.5625 4.5625 C-1 1 -1 1 0 0 Z " fill="#1D438C" transform="translate(123,75)"/>
<path d="M0 0 C0.33 0 0.66 0 1 0 C1.33 3.63 1.66 7.26 2 11 C-1.12505696 11.02688864 -4.24988425 11.04678462 -7.375 11.0625 C-8.26445312 11.07087891 -9.15390625 11.07925781 -10.0703125 11.08789062 C-11.34648437 11.09272461 -11.34648437 11.09272461 -12.6484375 11.09765625 C-13.82672119 11.10551147 -13.82672119 11.10551147 -15.02880859 11.11352539 C-17 11 -17 11 -19 10 C-19 8.35 -19 6.7 -19 5 C-18.67 6.32 -18.34 7.64 -18 9 C-12.06 9 -6.12 9 0 9 C0 6.03 0 3.06 0 0 Z " fill="#9AAFCF" transform="translate(180,82)"/>
<path d="M0 0 C0.99 0.33 1.98 0.66 3 1 C1.3341708 7.16356805 -1.87805286 12.48259656 -5 18 C-5.66 18 -6.32 18 -7 18 C-7 15.69 -7 13.38 -7 11 C-6.01 11 -5.02 11 -4 11 C-3.67 9.02 -3.34 7.04 -3 5 C-2.01 5 -1.02 5 0 5 C0 3.35 0 1.7 0 0 Z " fill="#986A9B" transform="translate(367,62)"/>
<path d="M0 0 C-1.98 0.99 -1.98 0.99 -4 2 C-4 1.34 -4 0.68 -4 0 C-6.31 0.33 -8.62 0.66 -11 1 C-11 0.34 -11 -0.32 -11 -1 C-18.29291217 -1.89945917 -23.94768652 -2.01494671 -31 0 C-33.21875 -0.4375 -33.21875 -0.4375 -35 -1 C-22.48392915 -5.65199093 -12.42901877 -4.4904842 0 0 Z " fill="#98ACCD" transform="translate(168,66)"/>
<path d="M0 0 C1.98 0 3.96 0 6 0 C6.66 1.98 7.32 3.96 8 6 C7.01 6.66 6.02 7.32 5 8 C4.67 7.34 4.34 6.68 4 6 C3.67 7.65 3.34 9.3 3 11 C2.01 11 1.02 11 0 11 C0 7.37 0 3.74 0 0 Z " fill="#7C7C7C" transform="translate(331,132)"/>
<path d="M0 0 C0.33 0.66 0.66 1.32 1 2 C0.01 1.67 -0.98 1.34 -2 1 C-6.46251242 -0.1357658 -10.79941592 -0.19158534 -15.375 -0.1875 C-16.08914063 -0.18814453 -16.80328125 -0.18878906 -17.5390625 -0.18945312 C-21.39738958 -0.20671813 -21.39738958 -0.20671813 -25 1 C-26.99960012 1.039992 -29.00047242 1.04346799 -31 1 C-30 -1 -30 -1 -26.6875 -2.125 C-17.79845109 -4.11271219 -8.36714597 -3.82397866 0 0 Z " fill="#ACBFD8" transform="translate(331,64)"/>
<path d="M0 0 C0.66 0.66 1.32 1.32 2 2 C2.66 2.12375 3.32 2.2475 4 2.375 C4.66 2.58125 5.32 2.7875 6 3 C6.66 4.32 7.32 5.64 8 7 C2.39 7 -3.22 7 -9 7 C-8.67 6.01 -8.34 5.02 -8 4 C-8 4.66 -8 5.32 -8 6 C-6.35 6 -4.7 6 -3 6 C-2.814375 4.7934375 -2.814375 4.7934375 -2.625 3.5625 C-2.41875 2.716875 -2.2125 1.87125 -2 1 C-1.34 0.67 -0.68 0.34 0 0 Z " fill="#194596" transform="translate(72,84)"/>
<path d="M0 0 C2.375 0.3125 2.375 0.3125 5 1 C7.22939433 4.3440915 7 5.18349338 7 9 C7.91568906 11.25132517 7.91568906 11.25132517 9 13 C7.00045254 13.04254356 4.99958364 13.04080783 3 13 C2 12 2 12 1.90234375 10.15234375 C1.93489583 8.1015625 1.96744792 6.05078125 2 4 C1.01 3.67 0.02 3.34 -1 3 C0.65 2.67 2.3 2.34 4 2 C2.68 1.67 1.36 1.34 0 1 C0 0.67 0 0.34 0 0 Z " fill="#9C9C9C" transform="translate(235,131)"/>
<path d="M0 0 C2.4375 0.8125 2.4375 0.8125 4.4375 3.8125 C4.4375 4.8025 4.4375 5.7925 4.4375 6.8125 C1.7975 6.8125 -0.8425 6.8125 -3.5625 6.8125 C-3.8925 7.4725 -4.2225 8.1325 -4.5625 8.8125 C-4.8925 6.5025 -5.2225 4.1925 -5.5625 1.8125 C-2.5625 -0.1875 -2.5625 -0.1875 0 0 Z M-1.5625 2.8125 C-2.2225 3.4725 -2.8825 4.1325 -3.5625 4.8125 C-2.2425 4.4825 -0.9225 4.1525 0.4375 3.8125 C-0.2225 3.4825 -0.8825 3.1525 -1.5625 2.8125 Z " fill="#686969" transform="translate(408.5625,131.1875)"/>
<path d="M0 0 C1.09658936 3.28976808 0.79953138 4.71303767 0 8 C0.66 8.33 1.32 8.66 2 9 C-1.4019487 11.09350689 -4.05272412 11.17942163 -8 11 C-7.01 8.69 -6.02 6.38 -5 4 C-4.01 4.33 -3.02 4.66 -2 5 C-2 3.68 -2 2.36 -2 1 C-1.34 0.67 -0.68 0.34 0 0 Z " fill="#9F9F9F" transform="translate(342,133)"/>
<path d="M0 0 C0.33 0.66 0.66 1.32 1 2 C1.99 2.33 2.98 2.66 4 3 C4 4.65 4 6.3 4 8 C1.03 8 -1.94 8 -5 8 C-5.3125 5.6875 -5.3125 5.6875 -5 3 C-2.5 1.1875 -2.5 1.1875 0 0 Z M-1 4 C-1.66 4.66 -2.32 5.32 -3 6 C-1.35 6 0.3 6 2 6 C1.01 5.34 0.02 4.68 -1 4 Z " fill="#3A3A3A" transform="translate(350,130)"/>
<path d="M0 0 C9.73547444 0.26599657 17.86847203 1.34398787 27 5 C23.52674819 6.1577506 20.63932552 6.06866652 17 6 C17 5.01 17 4.02 17 3 C15.865625 3.04125 14.73125 3.0825 13.5625 3.125 C8.85616438 3.14183841 4.53683996 2.17621777 0 1 C0 0.67 0 0.34 0 0 Z " fill="#8CA1C6" transform="translate(399,10)"/>
<path d="M0 0 C0.66 0 1.32 0 2 0 C2.33 2.64 2.66 5.28 3 8 C3.99 8 4.98 8 6 8 C6.33 5.69 6.66 3.38 7 1 C7.33 1 7.66 1 8 1 C8 4.3 8 7.6 8 11 C7.01 10.67 6.02 10.34 5 10 C5 10.66 5 11.32 5 12 C3.68 12 2.36 12 1 12 C-0.26237731 9.47524538 -0.09856404 7.68799534 -0.0625 4.875 C-0.05347656 3.96492187 -0.04445313 3.05484375 -0.03515625 2.1171875 C-0.02355469 1.41851562 -0.01195312 0.71984375 0 0 Z " fill="#474747" transform="translate(287,132)"/>
<path d="M0 0 C1.13583456 3.71727674 0.66670026 5.47051709 -1 9 C-1.66 9 -2.32 9 -3 9 C-3.33 10.98 -3.66 12.96 -4 15 C-4.66 15 -5.32 15 -6 15 C-6.33 16.98 -6.66 18.96 -7 21 C-7.99 21.33 -8.98 21.66 -10 22 C-8.4719611 16.90117545 -6.28963144 12.34334341 -3.875 7.625 C-3.50246094 6.88894531 -3.12992187 6.15289062 -2.74609375 5.39453125 C-1.8343878 3.59449642 -0.91770068 1.79698598 0 0 Z " fill="#7891BA" transform="translate(374,74)"/>
<path d="M0 0 C2.97 0 5.94 0 9 0 C9 0.33 9 0.66 9 1 C6.69 1 4.38 1 2 1 C2 2.65 2 4.3 2 6 C3.98 6 5.96 6 8 6 C8 6.33 8 6.66 8 7 C6.02 7 4.04 7 2 7 C2 9.64 2 12.28 2 15 C1.34 15 0.68 15 0 15 C0 10.05 0 5.1 0 0 Z " fill="#1F1E1F" transform="translate(259,129)"/>
<path d="M0 0 C0.66 0.33 1.32 0.66 2 1 C1.24669674 5.89647119 -1.49658356 9.74715297 -5.25 12.875 C-6.11625 13.431875 -6.11625 13.431875 -7 14 C-7 12.02 -7 10.04 -7 8 C-6.34 8 -5.68 8 -5 8 C-3.63722914 6.21034453 -3.63722914 6.21034453 -2.375 4 C-1.92898437 3.2575 -1.48296875 2.515 -1.0234375 1.75 C-0.68570313 1.1725 -0.34796875 0.595 0 0 Z " fill="#8D5790" transform="translate(178,104)"/>
<path d="M0 0 C0.66 0 1.32 0 2 0 C2 3.96 2 7.92 2 12 C4.31 12 6.62 12 9 12 C9 12.66 9 13.32 9 14 C6.03 14 3.06 14 0 14 C0 9.38 0 4.76 0 0 Z " fill="#1F1F1F" transform="translate(321,129)"/>
<path d="M0 0 C5.94 0 11.88 0 18 0 C18 1.98 18 3.96 18 6 C17.67 4.68 17.34 3.36 17 2 C8.585 2.495 8.585 2.495 0 3 C0 2.01 0 1.02 0 0 Z " fill="#703773" transform="translate(163,95)"/>
<path d="M0 0 C0 0.66 0 1.32 0 2 C0.78375 1.814375 1.5675 1.62875 2.375 1.4375 C5 1 5 1 7 2 C6.67 2.99 6.34 3.98 6 5 C6.39397335 7.63804589 6.39397335 7.63804589 7 10 C6.443125 9.21625 5.88625 8.4325 5.3125 7.625 C2.78486843 4.7557966 1.67264288 3.89775715 -2 3 C-5.00859502 2.85311573 -7.9909086 2.88199642 -11 3 C-7.88866897 -0.11133103 -4.26881718 0 0 0 Z " fill="#728CBD" transform="translate(320,75)"/>
<path d="M0 0 C0.66 0 1.32 0 2 0 C3 3 3 3 2.46875 4.9296875 C1.8780262 7.53871762 2.43278909 8.70537527 3.5 11.125 C4.40625 13.1953125 4.40625 13.1953125 5 15 C4.67 15.66 4.34 16.32 4 17 C-0.92466368 10.74618834 -0.92466368 10.74618834 -1.109375 6.46484375 C-0.84514443 4.27103466 -0.50288357 2.15094754 0 0 Z " fill="#9A689D" transform="translate(285,98)"/>
<path d="M0 0 C1.87723804 5.22145679 -0.47888994 9.8890702 -2 15 C2.62 15 7.24 15 12 15 C12 15.33 12 15.66 12 16 C7.05 16 2.1 16 -3 16 C-3.33266291 9.79029227 -2.45029331 5.71735105 0 0 Z " fill="#A9BFD6" transform="translate(286,77)"/>
<path d="M0 0 C2.24834496 -0.13526139 4.49902514 -0.23210804 6.75 -0.3125 C8.00296875 -0.37050781 9.2559375 -0.42851563 10.546875 -0.48828125 C14 0 14 0 16.265625 2.39453125 C16.83796875 3.25433594 17.4103125 4.11414063 18 5 C18.99 5.66 19.98 6.32 21 7 C18.6875 7.1875 18.6875 7.1875 16 7 C14.3125 5.5625 14.3125 5.5625 13 4 C9.85658007 2.42829004 6.44228549 2.76824217 3 3 C2.01 3.33 1.02 3.66 0 4 C0 2.68 0 1.36 0 0 Z " fill="#7994BF" transform="translate(243,77)"/>
<path d="M0 0 C1.33332095 2.6666419 0.67102033 4.16680303 0 7 C-0.66 7 -1.32 7 -2 7 C-1.7215625 7.928125 -1.7215625 7.928125 -1.4375 8.875 C-1 11 -1 11 -2 13 C-0.02 13 1.96 13 4 13 C4 13.33 4 13.66 4 14 C1.03 14 -1.94 14 -5 14 C-4.53411505 8.29290936 -3.06242216 4.84060277 0 0 Z " fill="#3E5B94" transform="translate(356,110)"/>
<path d="M0 0 C0.92538169 3.70152678 1.08174162 4.63458162 0 8 C2.10494301 7.91291962 4.20902142 7.80474307 6.3125 7.6875 C7.48425781 7.62949219 8.65601563 7.57148437 9.86328125 7.51171875 C13.0983686 6.98395232 14.08684881 6.57619276 16 4 C16.33 4.99 16.66 5.98 17 7 C16.67 7.66 16.34 8.32 16 9 C10.39 9 4.78 9 -1 9 C-0.67 6.03 -0.34 3.06 0 0 Z " fill="#1C428A" transform="translate(220,82)"/>
<path d="M0 0 C0.33 0 0.66 0 1 0 C1.25 6.625 1.25 6.625 -1 10 C-3.97 9.505 -3.97 9.505 -7 9 C-7 7.35 -7 5.7 -7 4 C-4.69 4 -2.38 4 0 4 C0 2.68 0 1.36 0 0 Z M-6 5 C-5.67 5.66 -5.34 6.32 -5 7 C-4.01 6.67 -3.02 6.34 -2 6 C-3.32 5.67 -4.64 5.34 -6 5 Z " fill="#979797" transform="translate(313,134)"/>
<path d="M0 0 C0 1.32 0 2.64 0 4 C-1.32 4 -2.64 4 -4 4 C-4 6.64 -4 9.28 -4 12 C-4.66 11.67 -5.32 11.34 -6 11 C-6 7.7 -6 4.4 -6 1 C-2 0 -2 0 0 0 Z " fill="#636363" transform="translate(402,131)"/>
<path d="M0 0 C2.31 0.33 4.62 0.66 7 1 C7.33 2.32 7.66 3.64 8 5 C6.35 6.32 4.7 7.64 3 9 C2.8046875 6.94921875 2.609375 4.8984375 2.4140625 2.84765625 C2.27742188 2.23792969 2.14078125 1.62820312 2 1 C1.34 0.67 0.68 0.34 0 0 Z " fill="#996E9C" transform="translate(336,106)"/>
<path d="M0 0 C0.3125 2.3125 0.3125 2.3125 0 5 C-3.78330883 8.32472595 -7.11575508 8.28730852 -12 8 C-9.46162981 6.07083865 -6.89454443 4.18262271 -4.3125 2.3125 C-3.71050781 1.87550781 -3.10851562 1.43851562 -2.48828125 0.98828125 C-1 0 -1 0 0 0 Z " fill="#6E8CB6" transform="translate(421,84)"/>
<path d="M0 0 C0.66 0.33 1.32 0.66 2 1 C2.3633218 7.41868512 2.3633218 7.41868512 0.75 10 C-1 11 -1 11 -3.1875 10.6875 C-3.785625 10.460625 -4.38375 10.23375 -5 10 C-4.01 9.01 -3.02 8.02 -2 7 C-3.32 7 -4.64 7 -6 7 C-6 6.34 -6 5.68 -6 5 C-3.69 5 -1.38 5 1 5 C0.67 3.35 0.34 1.7 0 0 Z " fill="#ACACAC" transform="translate(250,133)"/>
<path d="M0 0 C3.7497681 1.2499227 4.81524765 2.76053962 7 6 C7 7.32 7 8.64 7 10 C3.17398693 8.54875366 1.77670876 6.64225296 0 3 C0 2.01 0 1.02 0 0 Z " fill="#864D88" transform="translate(289,110)"/>
<path d="M0 0 C-0.33 1.65 -0.66 3.3 -1 5 C-2.98 5 -4.96 5 -7 5 C-7.33 3.35 -7.66 1.7 -8 0 C-5.13822943 -1.43088528 -3.06624227 -0.59991697 0 0 Z M-5 2 C-5.33 2.66 -5.66 3.32 -6 4 C-4.68 3.67 -3.36 3.34 -2 3 C-2.99 2.67 -3.98 2.34 -5 2 Z " fill="#808081" transform="translate(394,132)"/>
<path d="M0 0 C1.32 0.33 2.64 0.66 4 1 C4 1.99 4 2.98 4 4 C4.66 4.33 5.32 4.66 6 5 C5.34 7.31 4.68 9.62 4 12 C3.34 12 2.68 12 2 12 C2 9.36 2 6.72 2 4 C1.34 4 0.68 4 0 4 C0 2.68 0 1.36 0 0 Z " fill="#1F4893" transform="translate(298,77)"/>
<path d="M0 0 C0.66 0.33 1.32 0.66 2 1 C2.484375 3.43359375 2.484375 3.43359375 2.75 6.4375 C2.89695312 7.92056641 2.89695312 7.92056641 3.046875 9.43359375 C3 12 3 12 1 14 C-1.1640625 13.9765625 -1.1640625 13.9765625 -3.625 13.625 C-4.85089844 13.45871094 -4.85089844 13.45871094 -6.1015625 13.2890625 C-7.04128906 13.14597656 -7.04128906 13.14597656 -8 13 C-7.34 12.34 -6.68 11.68 -6 11 C-2.875 11.375 -2.875 11.375 0 12 C0 8.04 0 4.08 0 0 Z " fill="#DADADA" transform="translate(285,131)"/>
<path d="M0 0 C0.268125 0.5775 0.53625 1.155 0.8125 1.75 C2.01719859 4.0325868 3.40798115 5.9737942 5 8 C3.35 8.33 1.7 8.66 0 9 C-0.33 8.01 -0.66 7.02 -1 6 C-4.60992379 6.65585189 -4.60992379 6.65585189 -8 8 C-8 7.01 -8 6.02 -8 5 C-5.69 5 -3.38 5 -1 5 C-0.67 3.35 -0.34 1.7 0 0 Z " fill="#D3D3D3" transform="translate(355,133)"/>
<path d="M0 0 C0 0.66 0 1.32 0 2 C0.66 2.33 1.32 2.66 2 3 C0.75 4.5625 0.75 4.5625 -1 6 C-3.65694438 5.83394098 -4.76383679 5.21086001 -6.75 3.4375 C-7.1625 2.963125 -7.575 2.48875 -8 2 C-2.25 0 -2.25 0 0 0 Z " fill="#1C4790" transform="translate(265,77)"/>
<path d="M0 0 C2.3129482 2.3129482 2.49580975 3.47904875 3.125 6.625 C3.29257812 7.44226563 3.46015625 8.25953125 3.6328125 9.1015625 C3.81457031 10.04128906 3.81457031 10.04128906 4 11 C2.68 11 1.36 11 0 11 C-1.35374033 6.938779 -0.7278916 4.1853767 0 0 Z " fill="#1645A0" transform="translate(267,69)"/>
<path d="M0 0 C0.33 0.99 0.66 1.98 1 3 C0.34 3 -0.32 3 -1 3 C-1 2.34 -1 1.68 -1 1 C-2.32 1 -3.64 1 -5 1 C-5 1.66 -5 2.32 -5 3 C-6.65 3 -8.3 3 -10 3 C-10.33 2.34 -10.66 1.68 -11 1 C-10.34 1 -9.68 1 -9 1 C-9 0.34 -9 -0.32 -9 -1 C-5.19881294 -2.26706235 -3.6149628 -1.57172296 0 0 Z " fill="#1D4994" transform="translate(329,65)"/>
<path d="M0 0 C0.99 0.33 1.98 0.66 3 1 C4.01953125 3.1796875 4.01953125 3.1796875 4.8125 5.875 C5.08707031 6.75929688 5.36164062 7.64359375 5.64453125 8.5546875 C6 11 6 11 4 14 C3.32739649 12.23141309 2.66211605 10.46003984 2 8.6875 C1.62875 7.70136719 1.2575 6.71523438 0.875 5.69921875 C0 3 0 3 0 0 Z " fill="#5B79AD" transform="translate(48,51)"/>
<path d="M0 0 C0.99 0.33 1.98 0.66 3 1 C3 2.32 3 3.64 3 5 C0.69 5 -1.62 5 -4 5 C-3.67 6.32 -3.34 7.64 -3 9 C-3.66 9 -4.32 9 -5 9 C-5.33 6.69 -5.66 4.38 -6 2 C-5.34 1.67 -4.68 1.34 -4 1 C-4 1.99 -4 2.98 -4 4 C-2.35 4 -0.7 4 1 4 C0.67 2.68 0.34 1.36 0 0 Z " fill="#1F1F1F" transform="translate(310,133)"/>
<path d="M0 0 C0.33 0.66 0.66 1.32 1 2 C1.66 2 2.32 2 3 2 C3 5.63 3 9.26 3 13 C2.01 13 1.02 13 0 13 C0 8.71 0 4.42 0 0 Z " fill="#535353" transform="translate(282,130)"/>
<path d="M0 0 C0.33 0.99 0.66 1.98 1 3 C1.66 3 2.32 3 3 3 C3.33 3.99 3.66 4.98 4 6 C4.9590625 6.433125 4.9590625 6.433125 5.9375 6.875 C8.71680854 8.39098648 9.07115981 10.05867273 10 13 C6.64170896 11.56285993 4.60029302 9.79022601 2.1875 7.0625 C1.56230469 6.37285156 0.93710938 5.68320313 0.29296875 4.97265625 C-0.13371094 4.32167969 -0.56039062 3.67070313 -1 3 C-0.67 2.01 -0.34 1.02 0 0 Z " fill="#B186B1" transform="translate(222,107)"/>
<path d="M0 0 C1.32 0.33 2.64 0.66 4 1 C4 1.99 4 2.98 4 4 C1 6.1875 1 6.1875 -2 8 C-2.66 7.67 -3.32 7.34 -4 7 C-4 6.01 -4 5.02 -4 4 C-2.68 4 -1.36 4 0 4 C0 2.68 0 1.36 0 0 Z " fill="#5475A9" transform="translate(432,111)"/>
<path d="M0 0 C4.875 2.75 4.875 2.75 6 5 C4.5625 7.625 4.5625 7.625 3 10 C2.01 9.67 1.02 9.34 0 9 C0 8.01 0 7.02 0 6 C0.99 5.67 1.98 5.34 3 5 C2.2575 4.319375 2.2575 4.319375 1.5 3.625 C0 2 0 2 0 0 Z " fill="#466BB0" transform="translate(168,67)"/>
<path d="M0 0 C0.66 0 1.32 0 2 0 C2 1.98 2 3.96 2 6 C0.68 6.33 -0.64 6.66 -2 7 C-2.33 8.65 -2.66 10.3 -3 12 C-3.66 12 -4.32 12 -5 12 C-3.68938409 7.76570244 -2.05643741 3.92592596 0 0 Z " fill="#7189AC" transform="translate(385,52)"/>
<path d="M0 0 C0.33 1.32 0.66 2.64 1 4 C0.01 4.66 -0.98 5.32 -2 6 C-2 5.34 -2 4.68 -2 4 C-5.63 4.33 -9.26 4.66 -13 5 C-13.33 4.01 -13.66 3.02 -14 2 C-13.24074219 2.02320312 -12.48148438 2.04640625 -11.69921875 2.0703125 C-10.20841797 2.09738281 -10.20841797 2.09738281 -8.6875 2.125 C-7.20830078 2.15980469 -7.20830078 2.15980469 -5.69921875 2.1953125 C-2.77593473 2.20682639 -2.77593473 2.20682639 0 0 Z " fill="#B385B5" transform="translate(258,105)"/>
<path d="M0 0 C1.65 0 3.3 0 5 0 C5 1.65 5 3.3 5 5 C3.02 5 1.04 5 -1 5 C-0.67 3.35 -0.34 1.7 0 0 Z " fill="#DA5384" transform="translate(392,65)"/>
<path d="M0 0 C4.7945709 0.58116011 8.01785111 2.37027904 12 5 C13.4375 7.25 13.4375 7.25 14 9 C13.278125 8.54625 12.55625 8.0925 11.8125 7.625 C9.25105919 6.14505642 6.76722011 5.02782461 4 4 C4 3.34 4 2.68 4 2 C2.68 1.34 1.36 0.68 0 0 Z " fill="#9FB2D1" transform="translate(260,63)"/>
<path d="M0 0 C-0.33 0.99 -0.66 1.98 -1 3 C-1.99 3 -2.98 3 -4 3 C-3.01 3.66 -2.02 4.32 -1 5 C-2.65 5 -4.3 5 -6 5 C-6 4.34 -6 3.68 -6 3 C-6.66 3 -7.32 3 -8 3 C-7.67 2.01 -7.34 1.02 -7 0 C-4.3333581 -1.33332095 -2.83319697 -0.67102033 0 0 Z " fill="#888888" transform="translate(250,132)"/>
<path d="M0 0 C1.98 0 3.96 0 6 0 C6.33 0.99 6.66 1.98 7 3 C7.99 3.33 8.98 3.66 10 4 C10 4.66 10 5.32 10 6 C5.56909529 4.79157144 3.01887244 3.48331435 0 0 Z " fill="#915F92" transform="translate(127,117)"/>
<path d="M0 0 C1.485 0.99 1.485 0.99 3 2 C2.67 2.66 2.34 3.32 2 4 C2.99 4.33 3.98 4.66 5 5 C5 5.66 5 6.32 5 7 C5.66 7 6.32 7 7 7 C6.67 8.32 6.34 9.64 6 11 C3.34730103 8.52414762 1.31989897 6.40973899 0 3 C0 2.01 0 1.02 0 0 Z " fill="#9A6C9B" transform="translate(118,103)"/>
<path d="M0 0 C2 3 2 3 1.625 5.6875 C1.41875 6.450625 1.2125 7.21375 1 8 C1.99 8.33 2.98 8.66 4 9 C1.69 9 -0.62 9 -3 9 C-2.44271087 5.65626525 -1.64826111 2.96687001 0 0 Z " fill="#4769A7" transform="translate(388,31)"/>
<path d="M0 0 C0.33 1.32 0.66 2.64 1 4 C-2 5 -2 5 -5 4 C-5 3.01 -5 2.02 -5 1 C-5.66 0.67 -6.32 0.34 -7 0 C-4.3333581 -1.33332095 -2.83319697 -0.67102033 0 0 Z " fill="#959595" transform="translate(363,132)"/>
<path d="M0 0 C0.33 0 0.66 0 1 0 C1 1.98 1 3.96 1 6 C5.29 6 9.58 6 14 6 C14 6.33 14 6.66 14 7 C8.72 7 3.44 7 -2 7 C-1 3 -1 3 0 0 Z " fill="#224588" transform="translate(89,84)"/>
<path d="M0 0 C1.875 1.5 1.875 1.5 3 3 C-0.90355692 4.95177846 -5.91974925 3.14247021 -10 2 C-6.60268371 -0.09065618 -3.95730595 -0.42098999 0 0 Z " fill="#708AB9" transform="translate(154,77)"/>
<path d="M0 0 C2.52259061 1.97420135 2.9929808 2.96745642 3.6875 6.1875 C3.790625 7.115625 3.89375 8.04375 4 9 C2.68 9 1.36 9 0 9 C-1.15941038 5.52176885 -0.70820884 3.54104422 0 0 Z " fill="#19489F" transform="translate(59,69)"/>
<path d="M0 0 C1.13643966 3.40931897 0.86747764 4.00335456 -0.4375 7.1875 C-0.72496094 7.90292969 -1.01242188 8.61835937 -1.30859375 9.35546875 C-1.53675781 9.89816406 -1.76492187 10.44085938 -2 11 C-2.66 11 -3.32 11 -4 11 C-4.36865539 5.59305432 -4.36865539 5.59305432 -2.5625 2.6875 C-1.72153719 1.77926016 -0.87524798 0.87524798 0 0 Z " fill="#6882B2" transform="translate(113,64)"/>
<path d="M0 0 C0 0.66 0 1.32 0 2 C-0.99 2.495 -0.99 2.495 -2 3 C-2.46523063 4.89533342 -2.46523063 4.89533342 -2.625 7.0625 C-2.74875 8.361875 -2.8725 9.66125 -3 11 C-3.66 11 -4.32 11 -5 11 C-5 7.7 -5 4.4 -5 1 C-2 0 -2 0 0 0 Z " fill="#2E2D2E" transform="translate(303,132)"/>
<path d="M0 0 C2 1.8125 2 1.8125 4 4 C4 4.99 4 5.98 4 7 C2.35 7.33 0.7 7.66 -1 8 C-1.33 7.34 -1.66 6.68 -2 6 C-1.34 6 -0.68 6 0 6 C0 4.02 0 2.04 0 0 Z " fill="#768BB7" transform="translate(274,72)"/>
<path d="M0 0 C2.30153291 2.30153291 2.7577028 3.84875905 3.6875 6.9375 C3.95949219 7.81277344 4.23148437 8.68804687 4.51171875 9.58984375 C5 12 5 12 4 15 C3.71125 14.030625 3.4225 13.06125 3.125 12.0625 C2.35785318 8.89335797 2.35785318 8.89335797 0 8 C0 5.36 0 2.72 0 0 Z " fill="#A4B7D5" transform="translate(65,43)"/>
<path d="M0 0 C0.66 0.33 1.32 0.66 2 1 C1.95875 1.7425 1.9175 2.485 1.875 3.25 C2.00398134 6.08758952 2.57051222 7.58773938 4 10 C2.02 10 0.04 10 -2 10 C-1.34 9.67 -0.68 9.34 0 9 C0 6.03 0 3.06 0 0 Z " fill="#F4F4F4" transform="translate(240,134)"/>
<path d="M0 0 C4.29 0 8.58 0 13 0 C10.36673543 2.63326457 8.67446899 2.71180635 5 3 C2.125 2.0625 2.125 2.0625 0 1 C0 0.67 0 0.34 0 0 Z " fill="#A57AA8" transform="translate(141,108)"/>
<path d="M0 0 C1.2065625 0.0309375 1.2065625 0.0309375 2.4375 0.0625 C1.65375 0.92875 0.87 1.795 0.0625 2.6875 C-2.39636728 5.61306447 -3.58700104 8.33786762 -4.5625 12.0625 C-6.16420888 8.0582278 -4.90290384 5.00924464 -3.5625 1.0625 C-2.5625 0.0625 -2.5625 0.0625 0 0 Z " fill="#7994BA" transform="translate(141.5625,79.9375)"/>
<path d="M0 0 C5.28 0 10.56 0 16 0 C16 0.33 16 0.66 16 1 C15.07316406 1.04898438 14.14632812 1.09796875 13.19140625 1.1484375 C11.99386719 1.22320312 10.79632813 1.29796875 9.5625 1.375 C7.77005859 1.47941406 7.77005859 1.47941406 5.94140625 1.5859375 C4.97074219 1.72257812 4.00007813 1.85921875 3 2 C2.67 2.66 2.34 3.32 2 4 C1.01 3.67 0.02 3.34 -1 3 C-0.67 2.01 -0.34 1.02 0 0 Z " fill="#6E2D77" transform="translate(85,96)"/>
<path d="M0 0 C0.99 0.33 1.98 0.66 3 1 C0.0094833 4.33557632 -2.93184627 6.15083921 -7 8 C-5.51218185 4.21282653 -3.38011591 2.22592999 0 0 Z " fill="#91A7C9" transform="translate(297,65)"/>
<path d="M0 0 C1.14266516 3.35897545 0.85911331 5.30450352 -0.3125 8.625 C-0.70888672 9.78902344 -0.70888672 9.78902344 -1.11328125 10.9765625 C-2 13 -2 13 -4 15 C-3.43179252 9.54520815 -2.05362055 5.08940744 0 0 Z " fill="#96ACCF" transform="translate(100,47)"/>
<path d="M0 0 C2.97 0.33 5.94 0.66 9 1 C9 1.33 9 1.66 9 2 C5.37 2.66 1.74 3.32 -2 4 C-1.34 2.68 -0.68 1.36 0 0 Z " fill="#AD89AE" transform="translate(327,104)"/>
<path d="M0 0 C0.66 0.33 1.32 0.66 2 1 C-0.73152399 5.72763768 -2.93126149 7.92642516 -8 10 C-6.34908222 5.70761377 -3.26245434 3.1206085 0 0 Z " fill="#7790BA" transform="translate(230,67)"/>
<path d="M0 0 C0 0.33 0 0.66 0 1 C-5.23471686 1.75612577 -9.77254141 2.2063366 -15 1 C-15 0.67 -15 0.34 -15 0 C-9.46245077 -2.55579195 -5.61036424 -1.62077189 0 0 Z " fill="#F0F0F0" transform="translate(362,143)"/>
<path d="M0 0 C0.66 0 1.32 0 2 0 C2 0.99 2 1.98 2 3 C3.65 3.33 5.3 3.66 7 4 C7 4.66 7 5.32 7 6 C4.625 6.125 4.625 6.125 2 6 C1.34 5.34 0.68 4.68 0 4 C0 2.68 0 1.36 0 0 Z " fill="#404040" transform="translate(356,133)"/>
<path d="M0 0 C2.475 0.99 2.475 0.99 5 2 C5 3.32 5 4.64 5 6 C4.34 6 3.68 6 3 6 C2.67 6.66 2.34 7.32 2 8 C0.74335022 5.09399739 0 3.20395416 0 0 Z " fill="#966698" transform="translate(72,114)"/>
<path d="M0 0 C-0.66 1.32 -1.32 2.64 -2 4 C-8.15234375 3.4140625 -8.15234375 3.4140625 -10 3 C-10.33 2.34 -10.66 1.68 -11 1 C-3.375 0 -3.375 0 0 0 Z " fill="#732D74" transform="translate(155,109)"/>
<path d="M0 0 C0.66 0 1.32 0 2 0 C2 1.32 2 2.64 2 4 C2.99 4.33 3.98 4.66 5 5 C5 5.66 5 6.32 5 7 C3.35 7 1.7 7 0 7 C0 4.69 0 2.38 0 0 Z " fill="#762C78" transform="translate(299,100)"/>
<path d="M0 0 C0.99 0.33 1.98 0.66 3 1 C2.67 1.66 2.34 2.32 2 3 C1.34 3 0.68 3 0 3 C-0.33 4.98 -0.66 6.96 -1 9 C-1.99 9.33 -2.98 9.66 -4 10 C-2.8905928 6.51329166 -1.73662334 3.22515763 0 0 Z " fill="#6B81B1" transform="translate(368,86)"/>
<path d="M0 0 C2.6875 0.875 2.6875 0.875 5 2 C4.67 2.99 4.34 3.98 4 5 C3.67 4.34 3.34 3.68 3 3 C0.69 3.66 -1.62 4.32 -4 5 C-3 2 -3 2 0 0 Z " fill="#1E458E" transform="translate(129,69)"/>
<path d="M0 0 C1.32 0 2.64 0 4 0 C4 0.99 4 1.98 4 3 C1.1875 4.5625 1.1875 4.5625 -2 6 C-2.99 5.67 -3.98 5.34 -5 5 C-4.34 5 -3.68 5 -3 5 C-3 4.34 -3 3.68 -3 3 C-1.68 3 -0.36 3 1 3 C0.67 2.01 0.34 1.02 0 0 Z " fill="#9D71A0" transform="translate(166,117)"/>
<path d="M0 0 C2.1875 1.3125 2.1875 1.3125 4 3 C4 3.66 4 4.32 4 5 C1.03 4.505 1.03 4.505 -2 4 C-2.33 3.01 -2.66 2.02 -3 1 C-2.01 0.67 -1.02 0.34 0 0 Z " fill="#8E5A92" transform="translate(240,103)"/>
<path d="M0 0 C0.721875 0.268125 1.44375 0.53625 2.1875 0.8125 C1.1975 1.1425 0.2075 1.4725 -0.8125 1.8125 C-0.8125 2.4725 -0.8125 3.1325 -0.8125 3.8125 C-3.1225 4.1425 -5.4325 4.4725 -7.8125 4.8125 C-3.50480769 -0.23365385 -3.50480769 -0.23365385 0 0 Z " fill="#6884B5" transform="translate(133.8125,66.1875)"/>
<path d="M0 0 C1.32 0.33 2.64 0.66 4 1 C3.34 3.97 2.68 6.94 2 10 C1.16550811 6.66203244 0.53980347 3.39305036 0 0 Z " fill="#5F7DB2" transform="translate(117,44)"/>
<path d="M0 0 C0.99 0 1.98 0 3 0 C2.5205537 4.21912747 1.83374881 6.79663178 -1 10 C-1.33 8.68 -1.66 7.36 -2 6 C-1.01 5.67 -0.02 5.34 1 5 C0.67 3.35 0.34 1.7 0 0 Z " fill="#99669C" transform="translate(383,29)"/>
<path d="M0 0 C0.66 0.33 1.32 0.66 2 1 C1.40072174 4.35595828 0.15377564 6.37801226 -2 9 C-2.25 3.375 -2.25 3.375 0 0 Z " fill="#9C719D" transform="translate(178,104)"/>
<path d="M0 0 C1.5 1.375 1.5 1.375 3 3 C3 3.66 3 4.32 3 5 C2.34 5 1.68 5 1 5 C1.33 6.98 1.66 8.96 2 11 C1.34 10.67 0.68 10.34 0 10 C-1.29411765 2.58823529 -1.29411765 2.58823529 0 0 Z " fill="#F2ADCA" transform="translate(190,44)"/>
<path d="M0 0 C0.33 0 0.66 0 1 0 C0.67 2.31 0.34 4.62 0 7 C-0.66 7 -1.32 7 -2 7 C-2 7.99 -2 8.98 -2 10 C-2.66 10 -3.32 10 -4 10 C-2.8905928 6.51329166 -1.73662334 3.22515763 0 0 Z " fill="#6B86B7" transform="translate(361,100)"/>
<path d="M0 0 C-1.26941497 3.91402949 -2.51167694 5.79072873 -6 8 C-5.40138258 5.64828869 -4.73075648 3.3140622 -4 1 C-2 0 -2 0 0 0 Z " fill="#28498B" transform="translate(446,100)"/>
<path d="M0 0 C1.98 1.65 3.96 3.3 6 5 C5.67 5.66 5.34 6.32 5 7 C2.525 6.01 2.525 6.01 0 5 C0 3.35 0 1.7 0 0 Z " fill="#627DB1" transform="translate(337,70)"/>
<path d="M0 0 C0.33 0.99 0.66 1.98 1 3 C1.66 3.33 2.32 3.66 3 4 C-0.20015856 5.06671952 -1.88544294 4.94845472 -5.1875 4.5625 C-6.08855469 4.46066406 -6.98960937 4.35882813 -7.91796875 4.25390625 C-8.60503906 4.17011719 -9.29210937 4.08632812 -10 4 C-9.67 3.34 -9.34 2.68 -9 2 C-6.03 2.33 -3.06 2.66 0 3 C0 2.01 0 1.02 0 0 Z " fill="#FBFBFB" transform="translate(330,140)"/>
<path d="M0 0 C-0.66 1.32 -1.32 2.64 -2 4 C-3.65 4 -5.3 4 -7 4 C-7 3.01 -7 2.02 -7 1 C-2.25 0 -2.25 0 0 0 Z " fill="#383838" transform="translate(354,139)"/>
<path d="M0 0 C0.33 0.66 0.66 1.32 1 2 C1.66 2.33 2.32 2.66 3 3 C2.67 3.66 2.34 4.32 2 5 C0.35 5 -1.3 5 -3 5 C-3.33 4.01 -3.66 3.02 -4 2 C-2.68 1.34 -1.36 0.68 0 0 Z " fill="#949293" transform="translate(350,130)"/>
<path d="M0 0 C0.99 0 1.98 0 3 0 C3 0.99 3 1.98 3 3 C2.34 3.66 1.68 4.32 1 5 C0.01 5 -0.98 5 -2 5 C-1.125 1.125 -1.125 1.125 0 0 Z " fill="#506EAC" transform="translate(289,73)"/>
<path d="M0 0 C1.09658936 3.28976808 0.79953138 4.71303767 0 8 C-0.99 7.67 -1.98 7.34 -3 7 C-2.625 4.0625 -2.625 4.0625 -2 1 C-1.34 0.67 -0.68 0.34 0 0 Z " fill="#666666" transform="translate(342,133)"/>
<path d="M0 0 C1.98 0 3.96 0 6 0 C6.33 0.66 6.66 1.32 7 2 C7.99 2.66 8.98 3.32 10 4 C3.47692308 3.38461538 3.47692308 3.38461538 1.0625 1.4375 C0.711875 0.963125 0.36125 0.48875 0 0 Z " fill="#B18BB4" transform="translate(296,120)"/>
<path d="M0 0 C1.33332095 2.6666419 0.67102033 4.16680303 0 7 C-0.66 7 -1.32 7 -2 7 C-2 7.66 -2 8.32 -2 9 C-2.66 9 -3.32 9 -4 9 C-2.80100302 5.9168649 -1.52299523 2.93720508 0 0 Z " fill="#91A5CA" transform="translate(356,110)"/>
<path d="M0 0 C4.455 0.99 4.455 0.99 9 2 C9 2.33 9 2.66 9 3 C6.36 3.33 3.72 3.66 1 4 C0.67 2.68 0.34 1.36 0 0 Z " fill="#6E3174" transform="translate(243,108)"/>
<path d="M0 0 C0.66 0.33 1.32 0.66 2 1 C1.835 1.78375 1.67 2.5675 1.5 3.375 C0.9376293 5.88208039 0.9376293 5.88208039 1 8 C-0.98 8.99 -0.98 8.99 -3 10 C-2.69201674 8.51988629 -2.378482 7.04092675 -2.0625 5.5625 C-1.88847656 4.73878906 -1.71445312 3.91507812 -1.53515625 3.06640625 C-1 1 -1 1 0 0 Z " fill="#1D4497" transform="translate(363,99)"/>
<path d="M0 0 C5.75 1.625 5.75 1.625 8 5 C4.5625 4.1875 4.5625 4.1875 1 3 C0.67 2.01 0.34 1.02 0 0 Z " fill="#617EAA" transform="translate(329,65)"/>
<path d="M0 0 C0.66 1.32 1.32 2.64 2 4 C0.68 5.32 -0.64 6.64 -2 8 C-2.33 7.34 -2.66 6.68 -3 6 C-2.06553465 3.96855359 -1.06775224 1.96466413 0 0 Z " fill="#6683B7" transform="translate(392,23)"/>
<path d="M0 0 C0.99 0 1.98 0 3 0 C1.25 5.75 1.25 5.75 -1 8 C-1 7.34 -1 6.68 -1 6 C-1.66 5.67 -2.32 5.34 -3 5 C-2.01 5 -1.02 5 0 5 C0 3.35 0 1.7 0 0 Z " fill="#A274A3" transform="translate(388,21)"/>
<path d="M0 0 C1.65 0 3.3 0 5 0 C4.67 1.98 4.34 3.96 4 6 C0 1.125 0 1.125 0 0 Z " fill="#88548B" transform="translate(390,11)"/>
<path d="M0 0 C0.99 0 1.98 0 3 0 C3 0.99 3 1.98 3 3 C2.01 3 1.02 3 0 3 C0 2.01 0 1.02 0 0 Z " fill="#919393" transform="translate(331,128)"/>
<path d="M0 0 C0.33 0 0.66 0 1 0 C1.33 1.98 1.66 3.96 2 6 C1.34 6 0.68 6 0 6 C0 4.02 0 2.04 0 0 Z " fill="#FFFFFF" transform="translate(400,136)"/>
<path d="" fill="#FFFFFF" transform="translate(0,0)"/>
<path d="" fill="#FFFFFF" transform="translate(0,0)"/>
<path d="" fill="#FFFFFF" transform="translate(0,0)"/>
<path d="M0 0 C2 1 2 1 2 1 Z " fill="#FFFFFF" transform="translate(264,132)"/>
<path d="M0 0 C2 1 2 1 2 1 Z " fill="#FFFFFF" transform="translate(227,132)"/>
<path d="" fill="#FFFFFF" transform="translate(0,0)"/>
<path d="" fill="#FFFFFF" transform="translate(0,0)"/>
<path d="" fill="#FFFFFF" transform="translate(0,0)"/>
<path d="" fill="#FFFFFF" transform="translate(0,0)"/>
<path d="" fill="#FFFFFF" transform="translate(0,0)"/>
<path d="" fill="#FFFFFF" transform="translate(0,0)"/>
<path d="" fill="#FFFFFF" transform="translate(0,0)"/>
<path d="" fill="#FFFFFF" transform="translate(0,0)"/>
<path d="" fill="#FFFFFF" transform="translate(0,0)"/>
<path d="" fill="#FFFFFF" transform="translate(0,0)"/>
<path d="" fill="#FFFFFF" transform="translate(0,0)"/>
<path d="" fill="#FFFFFF" transform="translate(0,0)"/>
<path d="" fill="#FFFFFF" transform="translate(0,0)"/>
<path d="" fill="#FFFFFF" transform="translate(0,0)"/>
<path d="" fill="#FFFFFF" transform="translate(0,0)"/>
<path d="" fill="#FFFFFF" transform="translate(0,0)"/>
<path d="" fill="#FFFFFF" transform="translate(0,0)"/>
<path d="" fill="#FFFFFF" transform="translate(0,0)"/>
<path d="" fill="#FFFFFF" transform="translate(0,0)"/>
<path d="" fill="#FFFFFF" transform="translate(0,0)"/>
<path d="" fill="#FFFFFF" transform="translate(0,0)"/>
<path d="" fill="#FFFFFF" transform="translate(0,0)"/>
<path d="" fill="#FFFFFF" transform="translate(0,0)"/>
</svg>
