<svg xmlns="http://www.w3.org/2000/svg" viewBox="0 0 750 500"><defs><style>.cls-1{isolation:isolate;}.cls-2{fill:none;stroke:#fff;stroke-miterlimit:10;mix-blend-mode:overlay;opacity:0.57;}</style></defs><g class="cls-1"><g id="OBJECTS"><path class="cls-2" d="M216.23,220.9,341.18,96a8.26,8.26,0,0,0,2.14-8l-6-22.32a8.24,8.24,0,0,0-5.85-5.84l-22.32-6a8.26,8.26,0,0,0-8,2.13l-124.95,125a8.26,8.26,0,0,0-2.14,8l6,22.32a8.27,8.27,0,0,0,5.85,5.85l22.32,6A8.29,8.29,0,0,0,216.23,220.9Z"/><path class="cls-2" d="M79.83,181.39,186,75.18a7,7,0,0,0,1.82-6.79l-5.09-19a7,7,0,0,0-5-5l-19-5.08A7,7,0,0,0,152,41.18L45.83,147.39A7,7,0,0,0,44,154.18l5.08,19a7,7,0,0,0,5,5l19,5.09A7,7,0,0,0,79.83,181.39Z"/><path class="cls-2" d="M192.65,131.88l65.43-65.44a4.31,4.31,0,0,0,1.12-4.18l-3.13-11.69A4.34,4.34,0,0,0,253,47.51l-11.69-3.13a4.34,4.34,0,0,0-4.18,1.12l-65.43,65.43a4.32,4.32,0,0,0-1.12,4.18l3.13,11.69a4.32,4.32,0,0,0,3.06,3.06L188.47,133A4.34,4.34,0,0,0,192.65,131.88Z"/><path class="cls-2" d="M334,311l65.43-65.43a4.34,4.34,0,0,0,1.12-4.18l-3.13-11.69a4.34,4.34,0,0,0-3.06-3.06l-11.69-3.13a4.31,4.31,0,0,0-4.18,1.12L313.07,290a4.31,4.31,0,0,0-1.13,4.18l3.14,11.69a4.32,4.32,0,0,0,3.06,3.06l11.69,3.13A4.34,4.34,0,0,0,334,311Z"/><path class="cls-2" d="M64,281l80.87-80.86a3.88,3.88,0,0,0,1-3.75L143.05,186a3.87,3.87,0,0,0-2.74-2.75l-10.48-2.81a3.91,3.91,0,0,0-3.75,1L45.22,262.26a3.88,3.88,0,0,0-1,3.75L47,276.49a3.9,3.9,0,0,0,2.74,2.75l10.48,2.81A3.91,3.91,0,0,0,64,281Z"/><path class="cls-2" d="M331.71,189.47l80.87-80.87a3.88,3.88,0,0,0,1-3.75l-2.81-10.48A3.87,3.87,0,0,0,408,91.63l-10.48-2.81a3.86,3.86,0,0,0-3.75,1l-80.87,80.86a3.88,3.88,0,0,0-1,3.75l2.81,10.48a3.87,3.87,0,0,0,2.74,2.74L328,190.47A3.88,3.88,0,0,0,331.71,189.47Z"/><path class="cls-2" d="M193.79,345.84,274.66,265a3.88,3.88,0,0,0,1-3.75l-2.81-10.48a3.88,3.88,0,0,0-2.74-2.75l-10.48-2.81a3.91,3.91,0,0,0-3.75,1L175,327.06a3.89,3.89,0,0,0-1,3.75l2.81,10.48a3.88,3.88,0,0,0,2.74,2.75L190,346.85A3.91,3.91,0,0,0,193.79,345.84Z"/><path class="cls-2" d="M125.17,354.69,193.83,286a4.54,4.54,0,0,0,1.18-4.39l-3.29-12.27a4.53,4.53,0,0,0-3.21-3.21l-12.27-3.29a4.53,4.53,0,0,0-4.38,1.18l-68.67,68.67a4.53,4.53,0,0,0-1.18,4.38l3.29,12.27a4.53,4.53,0,0,0,3.21,3.21l12.27,3.29A4.56,4.56,0,0,0,125.17,354.69Z"/><path class="cls-2" d="M502.2,300.28,631.53,171a8.56,8.56,0,0,0,2.21-8.27l-6.19-23.1a8.56,8.56,0,0,0-6-6.05l-23.1-6.19a8.56,8.56,0,0,0-8.27,2.21L460.8,258.88a8.57,8.57,0,0,0-2.21,8.27l6.19,23.1a8.54,8.54,0,0,0,6.05,6.05l23.1,6.19A8.56,8.56,0,0,0,502.2,300.28Z"/><path class="cls-2" d="M570.88,447.54,700.2,318.21a8.55,8.55,0,0,0,2.22-8.27l-6.19-23.1a8.56,8.56,0,0,0-6.05-6l-23.11-6.19a8.55,8.55,0,0,0-8.26,2.21L529.48,406.14a8.57,8.57,0,0,0-2.22,8.27l6.2,23.1a8.54,8.54,0,0,0,6,6.05l23.1,6.19A8.58,8.58,0,0,0,570.88,447.54Z"/><path class="cls-2" d="M211.84,435.54l95.36-95.36a6.31,6.31,0,0,0,1.63-6.09l-4.57-17a6.3,6.3,0,0,0-4.46-4.46l-17-4.56a6.31,6.31,0,0,0-6.1,1.63L181.32,405a6.29,6.29,0,0,0-1.64,6.09l4.57,17a6.3,6.3,0,0,0,4.46,4.46l17,4.56A6.31,6.31,0,0,0,211.84,435.54Z"/><path class="cls-2" d="M664,453.5l54.43-54.43a3.61,3.61,0,0,0,.93-3.48l-2.6-9.72a3.61,3.61,0,0,0-2.55-2.55l-9.73-2.61a3.6,3.6,0,0,0-3.47.94l-54.44,54.43a3.6,3.6,0,0,0-.93,3.48l2.61,9.72a3.6,3.6,0,0,0,2.54,2.55l9.73,2.6A3.59,3.59,0,0,0,664,453.5Z"/><path class="cls-2" d="M446.75,222.22l67.72-67.72a4.46,4.46,0,0,0,1.16-4.33l-3.24-12.1a4.46,4.46,0,0,0-3.17-3.17l-12.1-3.24a4.46,4.46,0,0,0-4.32,1.16l-67.73,67.72a4.5,4.5,0,0,0-1.16,4.33l3.24,12.1a4.51,4.51,0,0,0,3.17,3.17l12.1,3.24A4.5,4.5,0,0,0,446.75,222.22Z"/><path class="cls-2" d="M613.44,118.89l67.73-67.73a4.48,4.48,0,0,0,1.16-4.32l-3.24-12.1a4.49,4.49,0,0,0-3.17-3.17l-12.1-3.24a4.47,4.47,0,0,0-4.33,1.16L591.77,97.21a4.45,4.45,0,0,0-1.16,4.33l3.24,12.1a4.47,4.47,0,0,0,3.17,3.17l12.09,3.24A4.5,4.5,0,0,0,613.44,118.89Z"/><path class="cls-2" d="M468.21,111.41l67.72-67.73a4.45,4.45,0,0,0,1.16-4.33l-3.24-12.1a4.49,4.49,0,0,0-3.17-3.17l-12.1-3.24A4.48,4.48,0,0,0,514.26,22L446.53,89.73a4.5,4.5,0,0,0-1.16,4.33l3.24,12.09a4.49,4.49,0,0,0,3.17,3.17l12.1,3.25A4.5,4.5,0,0,0,468.21,111.41Z"/><path class="cls-2" d="M344.62,362.53l83.7-83.7a4,4,0,0,0,1-3.88l-2.9-10.85a4,4,0,0,0-2.85-2.84l-10.84-2.9a4,4,0,0,0-3.88,1l-83.7,83.7a4,4,0,0,0-1,3.88l2.9,10.84a4,4,0,0,0,2.84,2.85l10.85,2.9A4,4,0,0,0,344.62,362.53Z"/><path class="cls-2" d="M621.73,267.75l83.7-83.7a4,4,0,0,0,1-3.88l-2.91-10.85a4,4,0,0,0-2.84-2.84l-10.85-2.91a4,4,0,0,0-3.88,1l-83.7,83.7a4,4,0,0,0-1,3.88L604.16,263a4,4,0,0,0,2.84,2.84l10.84,2.91A4.05,4.05,0,0,0,621.73,267.75Z"/><path class="cls-2" d="M479,429.6l83.7-83.7a4,4,0,0,0,1-3.88l-2.9-10.84a4,4,0,0,0-2.85-2.84l-10.84-2.91a4,4,0,0,0-3.88,1l-83.7,83.7a4,4,0,0,0-1,3.88l2.9,10.85a4,4,0,0,0,2.84,2.84l10.85,2.9A4,4,0,0,0,479,429.6Z"/><path class="cls-2" d="M407.94,438.76,479,367.68a4.7,4.7,0,0,0,1.21-4.54l-3.4-12.7a4.68,4.68,0,0,0-3.32-3.32l-12.7-3.4a4.7,4.7,0,0,0-4.54,1.21L385.19,416a4.71,4.71,0,0,0-1.22,4.54l3.41,12.7a4.68,4.68,0,0,0,3.32,3.32L403.4,440A4.71,4.71,0,0,0,407.94,438.76Z"/></g></g></svg>